<?xml version="1.0" standalone="no"?><!DOCTYPE svg PUBLIC "-//W3C//DTD SVG 1.1//EN" "http://www.w3.org/Graphics/SVG/1.1/DTD/svg11.dtd"><svg t="1576458482733" class="icon" viewBox="0 0 1024 1024" version="1.1" xmlns="http://www.w3.org/2000/svg" p-id="3273" xmlns:xlink="http://www.w3.org/1999/xlink" width="128" height="128"><defs><style type="text/css"></style></defs><path d="M403.52 382.38c-12.18 0-22.07-9.88-22.07-22.07v-56.37c0-12.18 9.88-22.07 22.07-22.07s22.07 9.88 22.07 22.07v56.32c0 12.19-9.88 22.12-22.07 22.12z m215.72 0c-12.18 0-22.07-9.88-22.07-22.07v-56.37c0-12.18 9.88-22.07 22.07-22.07s22.07 9.88 22.07 22.07v56.32c0 12.19-9.88 22.12-22.07 22.12z"  p-id="3274"></path><path d="M690.83 334.43h-26.61v22.37c0 22.75-15.39 44.28-37.9 47.55-27.46 3.99-51.14-17.33-51.14-44.04v-25.88H449.64c-0.66 0-1.2 0.54-1.2 1.2v21.17c0 22.75-15.39 44.28-37.9 47.55-27.46 3.99-51.14-17.33-51.14-44.04v-25.88h-25.41c-28.79 0-52.13 23.34-52.13 52.13v303.15c0 28.79 23.34 52.13 52.13 52.13h355.7c28.79 0 52.13-23.34 52.13-52.13V385.36c-0.07-28.13-22.86-50.93-50.99-50.93zM659.79 707.6H355.14c-19.59 0-35.48-15.88-35.48-35.48V429.48c0-0.66 0.54-1.2 1.2-1.2h381.81c0.46 0.46 0.74 0.73 1.2 1.18l3.72 229.55c0.45 26.71-21.09 48.59-47.8 48.59z"  p-id="3275"></path><path d="M651.09 537.76H372.91c-12.26 0-22.19-9.94-22.19-22.19v-1.69c0-12.26 9.94-22.19 22.19-22.19h278.17c12.26 0 22.19 9.94 22.19 22.19v1.69c0.01 12.25-9.93 22.19-22.18 22.19zM466.6 622.99h-93.52c-12.35 0-22.36-10.01-22.36-22.36v-1.36c0-12.35 10.01-22.36 22.36-22.36h93.52c12.35 0 22.36 10.01 22.36 22.36v1.36c0 12.35-10.01 22.36-22.36 22.36z"  p-id="3276"></path></svg>