<?xml version="1.0" standalone="no"?><!DOCTYPE svg PUBLIC "-//W3C//DTD SVG 1.1//EN" "http://www.w3.org/Graphics/SVG/1.1/DTD/svg11.dtd"><svg t="1576458504240" class="icon" viewBox="0 0 1024 1024" version="1.1" xmlns="http://www.w3.org/2000/svg" p-id="3397" xmlns:xlink="http://www.w3.org/1999/xlink" width="128" height="128"><defs><style type="text/css"></style></defs><path d="M349.81 372.19h-45.3c-12.51 0-22.65-10.14-22.65-22.65v-45.3c0-12.51 10.14-22.65 22.65-22.65h45.3c12.51 0 22.65 10.14 22.65 22.65v45.3c0 12.51-10.14 22.65-22.65 22.65zM719.49 372.19h-45.3c-12.51 0-22.65-10.14-22.65-22.65v-45.3c0-12.51 10.14-22.65 22.65-22.65h45.3c12.51 0 22.65 10.14 22.65 22.65v45.3c0 12.51-10.14 22.65-22.65 22.65zM349.81 742.4h-45.3c-12.51 0-22.65-10.14-22.65-22.65v-45.3c0-12.51 10.14-22.65 22.65-22.65h45.3c12.51 0 22.65 10.14 22.65 22.65v45.3c0 12.51-10.14 22.65-22.65 22.65zM719.49 742.4h-45.3c-12.51 0-22.65-10.14-22.65-22.65v-45.3c0-12.51 10.14-22.65 22.65-22.65h45.3c12.51 0 22.65 10.14 22.65 22.65v45.3c0 12.51-10.14 22.65-22.65 22.65z"  p-id="3398"></path><path d="M670.92 721.64h-22.65c-3.13 0-5.65-2.54-5.65-5.66s2.53-5.66 5.65-5.66h22.65c3.72 0 7.42-0.53 11-1.56 2.97-0.9 6.13 0.86 7 3.86s-0.85 6.14-3.85 7.01c-4.6 1.33-9.35 2.01-14.15 2.01z m-45.3 0h-22.65c-3.13 0-5.65-2.54-5.65-5.66s2.53-5.66 5.65-5.66h22.65c3.13 0 5.65 2.54 5.65 5.66s-2.53 5.66-5.65 5.66z m-45.3 0h-22.65c-3.13 0-5.65-2.54-5.65-5.66s2.53-5.66 5.65-5.66h22.65c3.13 0 5.65 2.54 5.65 5.66s-2.53 5.66-5.65 5.66z m-45.3 0h-22.63c-3.13 0-5.65-2.54-5.65-5.66s2.52-5.66 5.65-5.66h22.63c3.13 0 5.65 2.54 5.65 5.66s-2.53 5.66-5.65 5.66z m-45.28 0h-22.65c-3.13 0-5.65-2.54-5.65-5.66s2.53-5.66 5.65-5.66h22.65c3.13 0 5.65 2.54 5.65 5.66s-2.52 5.66-5.65 5.66z m-45.3 0h-22.65c-3.13 0-5.65-2.54-5.65-5.66s2.52-5.66 5.65-5.66h22.65c3.13 0 5.65 2.54 5.65 5.66s-2.52 5.66-5.65 5.66z m-45.3 0h-22.65c-3.13 0-5.65-2.54-5.65-5.66s2.52-5.66 5.65-5.66h22.65c3.13 0 5.65 2.54 5.65 5.66s-2.52 5.66-5.65 5.66z m-45.3 0c-8.5 0-16.95-2.16-24.43-6.26-2.75-1.5-3.75-4.94-2.25-7.69 1.52-2.75 4.9-3.76 7.7-2.24a39.75 39.75 0 0 0 18.98 4.86c3.13 0 5.65 2.54 5.65 5.66s-2.52 5.67-5.65 5.67z m348.95-13.19c-1.45 0-2.9-0.56-4.03-1.67-2.2-2.21-2.17-5.8 0.03-8 4.75-4.7 8.25-10.51 10.13-16.83 0.9-2.98 3.92-4.74 7.05-3.8 3 0.9 4.7 4.05 3.8 7.05-2.42 8.11-6.92 15.58-12.97 21.6a5.714 5.714 0 0 1-4.01 1.65z m-387.05-7.66c-1.85 0-3.68-0.91-4.75-2.59a50.801 50.801 0 0 1-8-23.92c-0.23-3.13 2.13-5.83 5.25-6.05 3.5-0.14 5.82 2.15 6.05 5.25 0.48 6.6 2.6 13.01 6.2 18.58a5.65 5.65 0 0 1-4.75 8.73z m400.48-34.02c-3.13 0-5.65-2.54-5.65-5.66v-22.65c0-3.13 2.53-5.66 5.65-5.66s5.65 2.54 5.65 5.66v22.65c0 3.13-2.53 5.66-5.65 5.66z m-407.68-9.88c-3.13 0-5.65-2.54-5.65-5.66v-22.64c0-3.13 2.52-5.66 5.65-5.66s5.65 2.54 5.65 5.66v22.64c0 3.12-2.52 5.66-5.65 5.66z m407.68-35.42c-3.13 0-5.65-2.54-5.65-5.66v-22.65c0-3.13 2.53-5.66 5.65-5.66s5.65 2.54 5.65 5.66v22.65c0 3.13-2.53 5.66-5.65 5.66z m-407.68-9.87c-3.13 0-5.65-2.54-5.65-5.66v-22.65c0-3.13 2.52-5.66 5.65-5.66s5.65 2.54 5.65 5.66v22.65c0 3.12-2.52 5.66-5.65 5.66z m407.68-35.41c-3.13 0-5.65-2.54-5.65-5.66v-22.65c0-3.13 2.53-5.66 5.65-5.66s5.65 2.54 5.65 5.66v22.65c0 3.12-2.53 5.66-5.65 5.66z m-407.68-9.89c-3.13 0-5.65-2.54-5.65-5.66v-22.65c0-3.13 2.52-5.66 5.65-5.66s5.65 2.54 5.65 5.66v22.65c0 3.12-2.52 5.66-5.65 5.66z m407.68-35.41c-3.13 0-5.65-2.54-5.65-5.66v-22.65c0-3.13 2.53-5.66 5.65-5.66s5.65 2.54 5.65 5.66v22.65c0 3.12-2.53 5.66-5.65 5.66zM308.54 521c-3.13 0-5.65-2.54-5.65-5.66v-22.65c0-3.13 2.52-5.66 5.65-5.66s5.65 2.54 5.65 5.66v22.65c0 3.12-2.52 5.66-5.65 5.66z m407.68-35.41c-3.13 0-5.65-2.54-5.65-5.66v-22.65c0-3.13 2.53-5.66 5.65-5.66s5.65 2.54 5.65 5.66v22.65c0 3.12-2.53 5.66-5.65 5.66z m-407.68-9.88c-3.13 0-5.65-2.54-5.65-5.66V447.4c0-3.13 2.52-5.66 5.65-5.66s5.65 2.54 5.65 5.66v22.65c0 3.12-2.52 5.66-5.65 5.66z m407.68-35.42c-3.13 0-5.65-2.54-5.65-5.66v-22.64c0-3.13 2.53-5.66 5.65-5.66s5.65 2.54 5.65 5.66v22.64c0 3.12-2.53 5.66-5.65 5.66z m-407.68-9.88c-3.13 0-5.65-2.54-5.65-5.66V402.1c0-3.13 2.52-5.66 5.65-5.66s5.65 2.54 5.65 5.66v22.65c0 3.12-2.52 5.66-5.65 5.66zM716.22 395c-3.13 0-5.65-2.54-5.65-5.66v-22.65c0-3.13 2.53-5.66 5.65-5.66s5.65 2.54 5.65 5.66v22.65c0 3.12-2.53 5.66-5.65 5.66z m-407.68-9.89c-3.13 0-5.65-2.54-5.65-5.66V356.8c0-3.13 2.52-5.66 5.65-5.66s5.65 2.54 5.65 5.66v22.65c0 3.12-2.52 5.66-5.65 5.66z m406.68-35.32c-2.63 0-4.98-1.81-5.53-4.48a40.037 40.037 0 0 0-8.77-17.54c-2.05-2.38-1.8-5.95 0.57-7.99 2.35-2.04 5.95-1.81 7.98 0.59 5.6 6.49 9.5 14.29 11.27 22.56 0.68 3.05-1.27 6.06-4.32 6.73-0.4 0.09-0.8 0.13-1.2 0.13z m-402.53-9.37c-0.8 0-1.6-0.16-2.38-0.52-2.85-1.31-4.07-4.67-2.77-7.51 3.58-7.7 9.05-14.48 15.85-19.58 2.52-1.9 6.08-1.39 7.92 1.13 1.88 2.5 1.38 6.05-1.13 7.92-5.3 3.99-9.57 9.28-12.35 15.28a5.663 5.663 0 0 1-5.14 3.28z m374.15-23.53c-0.67 0-1.35-0.13-2.03-0.38-4.42-1.69-9.1-2.54-13.9-2.54h-6.38c-3.13 0-5.65-2.54-5.65-5.66s2.53-5.66 5.65-5.66h6.38c6.2 0 12.22 1.1 17.95 3.29 2.93 1.11 4.38 4.39 3.28 7.3a5.686 5.686 0 0 1-5.3 3.65z m-339.35-2.47c-2.77 0-5.2-2.04-5.6-4.85-0.45-3.1 1.7-5.96 4.8-6.41 2.33-0.34 4.73-0.51 7.15-0.51h16.25c3.13 0 5.65 2.54 5.65 5.66s-2.52 5.66-5.65 5.66h-16.25c-1.88 0-3.73 0.13-5.55 0.39-0.27 0.04-0.55 0.06-0.8 0.06z m294.4-0.45h-22.65c-3.13 0-5.65-2.54-5.65-5.66s2.52-5.66 5.65-5.66h22.65c3.13 0 5.65 2.54 5.65 5.66s-2.52 5.66-5.65 5.66z m-45.3 0h-22.65c-3.13 0-5.65-2.54-5.65-5.66s2.52-5.66 5.65-5.66h22.65c3.13 0 5.65 2.54 5.65 5.66s-2.52 5.66-5.65 5.66z m-45.3 0h-22.65c-3.13 0-5.65-2.54-5.65-5.66s2.53-5.66 5.65-5.66h22.65c3.13 0 5.65 2.54 5.65 5.66s-2.52 5.66-5.65 5.66z m-45.3 0h-22.65c-3.13 0-5.65-2.54-5.65-5.66s2.53-5.66 5.65-5.66h22.65c3.13 0 5.65 2.54 5.65 5.66s-2.52 5.66-5.65 5.66z m-45.3 0h-22.65c-3.13 0-5.65-2.54-5.65-5.66s2.52-5.66 5.65-5.66h22.65c3.13 0 5.65 2.54 5.65 5.66s-2.52 5.66-5.65 5.66z m-45.3 0h-22.65c-3.13 0-5.65-2.54-5.65-5.66s2.52-5.66 5.65-5.66h22.65c3.13 0 5.65 2.54 5.65 5.66s-2.52 5.66-5.65 5.66z"  p-id="3399"></path></svg>