<?xml version="1.0" standalone="no"?><!DOCTYPE svg PUBLIC "-//W3C//DTD SVG 1.1//EN" "http://www.w3.org/Graphics/SVG/1.1/DTD/svg11.dtd"><svg t="1576459564135" class="icon" viewBox="0 0 1024 1024" version="1.1" xmlns="http://www.w3.org/2000/svg" p-id="3768" xmlns:xlink="http://www.w3.org/1999/xlink" width="128" height="128"><defs><style type="text/css"></style></defs><path d="M666 716.81h-73.92c-28.04 0-50.82-22.79-50.82-50.81v-73.92c0-28.03 22.78-50.82 50.82-50.82H666c28.02 0 50.8 22.79 50.8 50.82V666c0 28.02-22.78 50.81-50.8 50.81z m-73.92-147.83c-12.75 0-23.12 10.37-23.12 23.1V666c0 12.73 10.38 23.09 23.12 23.09H666c12.72 0 23.1-10.35 23.1-23.09v-73.92c0-12.73-10.38-23.1-23.1-23.1h-73.92zM431.92 716.81H358c-28.02 0-50.8-22.79-50.8-50.81v-73.92c0-28.03 22.78-50.82 50.8-50.82h73.92c28.04 0 50.82 22.79 50.82 50.82V666c0.01 28.02-22.78 50.81-50.82 50.81zM358 568.98c-12.72 0-23.1 10.37-23.1 23.1V666c0 12.73 10.38 23.09 23.1 23.09h73.92c12.75 0 23.12-10.35 23.12-23.09v-73.92c0-12.73-10.38-23.1-23.12-23.1H358zM666 482.76h-73.92c-28.04 0-50.82-22.79-50.82-50.82v-73.92c0-28.03 22.78-50.82 50.82-50.82H666c28.02 0 50.8 22.79 50.8 50.82v73.92c0 28.02-22.78 50.82-50.8 50.82z m-73.92-147.85c-12.75 0-23.12 10.37-23.12 23.1v73.92c0 12.73 10.38 23.1 23.12 23.1H666c12.72 0 23.1-10.37 23.1-23.1v-73.92c0-12.73-10.38-23.1-23.1-23.1h-73.92zM414.7 462.81c-2.36 0-4.6-0.99-6.17-2.7-3.83-4.09-8.99-6.31-14.51-6.31-5.56 0-10.72 2.26-14.53 6.35l-0.02 0.02c-2.26 2.4-5.75 3.25-8.89 2.18-0.02 0-0.02 0-0.04-0.02a71.24 71.24 0 0 1-23.2-13.4l-0.04-0.04c-2.5-2.18-3.47-5.66-2.52-8.79 1.63-5.36 0.99-10.97-1.77-15.78-2.8-4.8-7.34-8.16-12.8-9.41-3.27-0.75-5.78-3.35-6.39-6.63-0.85-4.47-1.29-8.97-1.29-13.38 0-4.4 0.44-8.91 1.29-13.4v-0.02c0.64-3.22 3.14-5.83 6.35-6.61 0.02 0 0.04 0 0.04-0.02 5.44-1.23 9.98-4.58 12.76-9.43 2.78-4.82 3.41-10.42 1.79-15.76-0.99-3.16 0-6.63 2.5-8.81a70.794 70.794 0 0 1 23.22-13.43c0.02 0 0.02 0 0.04-0.02 3.16-1.07 6.67-0.2 8.93 2.22 3.83 4.09 8.99 6.35 14.53 6.35 5.54 0 10.7-2.26 14.51-6.33 1.57-1.71 3.83-2.68 6.15-2.68 0.97 0 1.91 0.16 2.78 0.48 8.53 2.98 16.35 7.48 23.18 13.37a8.442 8.442 0 0 1 2.56 8.85c-1.63 5.34-1.01 10.93 1.79 15.76 2.8 4.8 7.34 8.16 12.8 9.41 3.29 0.75 5.79 3.35 6.39 6.65 0.83 4.52 1.29 9.01 1.31 13.36v0.02c0 4.41-0.44 8.91-1.29 13.37a8.475 8.475 0 0 1-6.37 6.63c-5.5 1.25-10.04 4.58-12.82 9.41-0.44 0.75-0.63 1.43-0.52 1.79 0.16 0.46 0.87 0.87 0.87 0.87 1.94 0.83 2.82 3.06 2 5a3.807 3.807 0 0 1-5 2c-0.4-0.18-3.87-1.75-5.12-5.48-0.57-1.75-0.83-4.54 1.15-8 3.85-6.67 10.12-11.29 17.68-13.02 0.3-0.06 0.54-0.32 0.6-0.64 0.75-3.99 1.15-8 1.15-11.93-0.02-3.87-0.42-7.9-1.17-11.99-0.06-0.3-0.3-0.54-0.62-0.62-7.54-1.73-13.81-6.35-17.68-13.02-3.85-6.67-4.72-14.41-2.46-21.81 0.1-0.3 0-0.64-0.24-0.83l-0.02-0.02c-6.11-5.28-13.08-9.33-20.72-11.97-0.02 0-0.04-0.02-0.06-0.02a0.71 0.71 0 0 0-0.2-0.04c-0.22 0-0.44 0.1-0.58 0.26-5.28 5.65-12.42 8.77-20.08 8.77-7.68 0-14.81-3.12-20.1-8.77-0.2-0.22-0.6-0.3-0.89-0.2-7.66 2.68-14.65 6.71-20.7 11.99-0.24 0.2-0.34 0.52-0.24 0.77 0 0.02 0 0.02 0.02 0.04 2.26 7.38 1.39 15.12-2.46 21.81-3.85 6.69-10.12 11.31-17.64 13.04-0.34 0.08-0.6 0.34-0.66 0.66-0.75 4.01-1.15 8.04-1.15 11.95 0 3.93 0.38 7.96 1.15 11.95v0.04c0.04 0.28 0.3 0.54 0.6 0.6 7.52 1.73 13.81 6.35 17.68 13.02 3.85 6.67 4.72 14.41 2.46 21.81-0.1 0.28 0.02 0.62 0.26 0.85a63.6 63.6 0 0 0 20.68 11.95c0.36 0.12 0.69-0.02 0.87-0.2 5.28-5.66 12.4-8.77 20.1-8.77 7.66 0 14.8 3.12 20.1 8.75l0.04 0.04c0.12 0.12 0.34 0.22 0.56 0.22 0.08 0 0.16 0 0.3-0.04a63.537 63.537 0 0 0 20.7-11.97 3.79 3.79 0 0 1 5.38 0.4 3.79 3.79 0 0 1-0.4 5.38 71.268 71.268 0 0 1-23.2 13.4c-0.02 0-0.04 0.02-0.04 0.02-0.83 0.34-1.74 0.5-2.67 0.5z m0 0"  p-id="3769"></path><path d="M373.31 469.07c-1.19 0-2.43-0.14-3.62-0.45H368l-0.86-0.86a77.386 77.386 0 0 1-23.88-14.08c-4.4-3.87-6.14-9.88-4.48-15.39 1.12-3.69 0.69-7.55-1.19-10.83-1.9-3.27-5.05-5.57-8.79-6.42-5.67-1.31-10.05-5.86-11.12-11.57-0.93-4.82-1.4-9.71-1.4-14.54s0.48-9.73 1.4-14.57c0.76-3.92 3.07-7.29 6.26-9.44l4.88-2.14c3.74-0.83 6.81-3.12 8.71-6.42 1.93-3.35 2.36-7.17 1.24-10.81-1.71-5.54 0-11.57 4.36-15.37 7.4-6.44 15.91-11.36 25.26-14.63l1.67-0.36c5.6-1.11 10.52 0.51 13.95 4.19 5.29 5.64 14.6 5.64 19.93 0 3.74-4.13 10.36-5.74 15.62-3.79a77.484 77.484 0 0 1 25.12 14.51c4.38 3.77 6.14 9.82 4.48 15.39-1.14 3.7-0.71 7.52 1.19 10.8 1.93 3.32 5.05 5.61 8.79 6.46 5.74 1.31 10.12 5.87 11.17 11.64 0.9 4.93 1.38 9.79 1.4 14.43 0 4.8-0.48 9.69-1.43 14.61-1.07 5.68-5.4 10.21-11.07 11.55-2.71 0.62-5.1 1.96-6.93 3.87 1.69 2.64 2.19 6.24 0.83 9.5a10.153 10.153 0 0 1-6.76 5.83c1.33 1.87 2 4.17 1.83 6.54-0.19 2.7-1.43 5.17-3.48 6.94-7.5 6.44-15.98 11.35-25.24 14.57l-1.19 0.35c-5.57 1.54-10.79-0.36-14.36-4.21-5.19-5.54-14.57-5.62-19.86 0.06a14.72 14.72 0 0 1-10.74 4.64z m20.64-29.19c8.14 0 15.83 2.87 21.98 8.17 5.69-2.36 10.93-5.6 15.62-9.64a9.74 9.74 0 0 1 3.5-1.98c-1.48-1.44-2.93-3.39-3.79-5.96-1.38-4.12-0.81-8.77 1.67-13.08 4.12-7.13 10.45-12.33 18.07-14.98 0.36-2.61 0.52-5.1 0.52-7.5-0.02-2.44-0.19-4.95-0.55-7.52-7.6-2.64-13.95-7.85-18.07-14.94s-5.45-15.19-3.93-23.14c-4.07-3.12-8.43-5.65-13.07-7.56-12.29 10.55-31.64 10.58-43.93-0.01a56.774 56.774 0 0 0-13.05 7.54c1.52 7.92 0.19 16-3.9 23.12-4.12 7.14-10.48 12.37-18.12 15.01-0.33 2.52-0.5 5.07-0.5 7.51 0 2.5 0.17 5.01 0.5 7.54 7.67 2.67 13.98 7.86 18.07 14.91 4.12 7.12 5.48 15.23 3.93 23.18 3.88 2.99 8.31 5.55 13.07 7.51 6.12-5.31 13.79-8.18 21.98-8.18z m45.83 7.96c-0.02 0.01-0.02 0.02-0.05 0.04 0.03-0.01 0.03-0.02 0.05-0.04z"  p-id="3770"></path><path d="M394.02 423.78c-15.92 0-28.85-12.96-28.85-28.85 0-15.91 12.96-28.85 28.85-28.85 15.92 0 28.85 12.96 28.85 28.85a28.7 28.7 0 0 1-4.41 15.32c-1.11 1.79-3.47 2.32-5.26 1.21-1.79-1.11-2.32-3.47-1.21-5.26 2.1-3.37 3.23-7.26 3.23-11.27 0-11.71-9.53-21.23-21.23-21.23-11.71 0-21.23 9.52-21.23 21.23s9.53 21.23 21.23 21.23c2.54 0 5.04-0.44 7.38-1.31 1.97-0.73 4.17 0.28 4.88 2.26 0.73 1.96-0.28 4.17-2.26 4.88-3.14 1.19-6.52 1.79-9.97 1.79z m0 0"  p-id="3771"></path><path d="M394.02 430.03c-19.36 0-35.12-15.75-35.12-35.11 0-19.37 15.76-35.12 35.12-35.12s35.12 15.75 35.12 35.12c0 6.63-1.86 13.08-5.38 18.66-1.4 2.27-3.64 3.86-6.29 4.46-1.5 0.35-3.12 0.38-4.71-0.06 0.07 1.57-0.24 3.15-0.93 4.64a10.06 10.06 0 0 1-5.71 5.25c-3.69 1.43-7.81 2.16-12.1 2.16z m7.74-13.89c-0.02 0-0.05 0.01-0.05 0.02 0-0.01 0.03-0.02 0.05-0.02zM394 379.95c-8.26 0-14.98 6.71-14.98 14.98 0 8.25 6.71 14.96 14.98 14.96 1.83 0 3.57-0.3 5.17-0.9 1.98-0.75 4.02-0.86 6-0.33a9.96 9.96 0 0 1 1.52-5.77c1.5-2.4 2.29-5.17 2.29-7.95-0.01-8.28-6.72-14.99-14.98-14.99z m23.33 29.52v0z" p-id="3772"></path></svg>