<?xml version="1.0" standalone="no"?><!DOCTYPE svg PUBLIC "-//W3C//DTD SVG 1.1//EN" "http://www.w3.org/Graphics/SVG/1.1/DTD/svg11.dtd"><svg t="1576461546235" class="icon" viewBox="0 0 1024 1024" version="1.1" xmlns="http://www.w3.org/2000/svg" p-id="3222" xmlns:xlink="http://www.w3.org/1999/xlink" width="128" height="128"><defs><style type="text/css"></style></defs><path d="M721.45 791.28H603.88c-12.85 0-23.28-10.43-23.28-23.28s10.43-23.28 23.28-23.28h117.58c12.83 0 23.27-10.44 23.27-23.27v-116.5c0-12.85 10.43-23.28 23.28-23.28s23.28 10.42 23.28 23.28v116.5c-0.01 38.5-31.34 69.83-69.84 69.83zM768 442.2c-12.85 0-23.28-10.43-23.28-23.28V302.55c0-12.84-10.45-23.27-23.27-23.27H604.72c-12.85 0-23.27-10.42-23.27-23.27s10.42-23.27 23.27-23.27h116.73c38.5 0 69.83 31.32 69.83 69.82v116.38c0 12.83-10.43 23.26-23.28 23.26zM256 442.2c-12.85 0-23.27-10.43-23.27-23.28V302.55c0-38.5 31.32-69.82 69.82-69.82H419.9c12.85 0 23.27 10.42 23.27 23.27s-10.42 23.27-23.27 23.27H302.55c-12.82 0-23.27 10.44-23.27 23.27v116.38c-0.01 12.85-10.43 23.28-23.28 23.28zM419.05 791.28h-116.5c-38.5 0-69.82-31.33-69.82-69.83v-116.5c0-12.85 10.42-23.28 23.27-23.28s23.27 10.42 23.27 23.28v116.5c0 12.84 10.45 23.27 23.27 23.27h116.5c12.85 0 23.28 10.43 23.28 23.28s-10.42 23.28-23.27 23.28z" p-id="3223"></path></svg>