<?xml version="1.0" standalone="no"?><!DOCTYPE svg PUBLIC "-//W3C//DTD SVG 1.1//EN" "http://www.w3.org/Graphics/SVG/1.1/DTD/svg11.dtd"><svg t="1576459711357" class="icon" viewBox="0 0 1024 1024" version="1.1" xmlns="http://www.w3.org/2000/svg" p-id="4015" xmlns:xlink="http://www.w3.org/1999/xlink" width="128" height="128"><defs><style type="text/css"></style></defs><path d="M692.78 649.54H331.16c-13.14 0-25.72-5.21-35.03-14.53a49.51 49.51 0 0 1-14.53-35.03V339.36c0-27.38 22.17-49.56 49.56-49.56h361.69c13.14 0 25.72 5.21 35.03 14.53a49.51 49.51 0 0 1 14.53 35.03v260.63c0 13.14-5.21 25.72-14.53 35.03-9.39 9.31-21.97 14.52-35.1 14.52z m7.64-47.33V337.06c0-2.78-2.22-5-5-5H328.44c-2.78 0-5 2.22-5 5v265.15c0 2.78 2.22 5 5 5h366.97c2.79 0.01 5.01-2.22 5.01-5zM407.33 691.87h209.2c14.04 0 21.06 7.02 21.06 21.06v0.21c0 14.04-7.02 21.06-21.06 21.06h-209.2c-14.04 0-21.06-7.02-21.06-21.06v-0.21c0-14.11 7.02-21.06 21.06-21.06z" p-id="4016"></path><path d="M383 416.78h6.67c11.75 0 17.58 5.84 17.58 17.58v112.87c0 11.75-5.84 17.58-17.58 17.58H383c-11.75 0-17.58-5.84-17.58-17.58V434.37c-0.07-11.75 5.84-17.59 17.58-17.59zM470.09 480.24c13.97 0 20.92 6.95 20.92 20.92v42.74c0 13.97-6.95 20.92-20.92 20.92-13.97 0-20.92-6.95-20.92-20.92v-42.74c-0.07-13.97 6.95-20.92 20.92-20.92zM553.84 374.46c13.97 0 20.92 6.95 20.92 20.92V543.9c0 13.97-6.95 20.92-20.92 20.92-13.97 0-20.92-6.95-20.92-20.92V395.38c0-13.97 6.95-20.92 20.92-20.92zM637.59 459.04c13.97 0 20.92 6.95 20.92 20.92v63.94c0 13.97-6.95 20.92-20.92 20.92-13.97 0-20.92-6.95-20.92-20.92v-63.94c0-13.9 6.95-20.92 20.92-20.92z" p-id="4017"></path></svg>