<?xml version="1.0" standalone="no"?><!DOCTYPE svg PUBLIC "-//W3C//DTD SVG 1.1//EN" "http://www.w3.org/Graphics/SVG/1.1/DTD/svg11.dtd"><svg t="1576458475884" class="icon" viewBox="0 0 1024 1024" version="1.1" xmlns="http://www.w3.org/2000/svg" p-id="3149" xmlns:xlink="http://www.w3.org/1999/xlink" width="128" height="128"><defs><style type="text/css"></style></defs><path d="M403.52 382.38c-12.18 0-22.07-9.88-22.07-22.07v-56.37c0-12.18 9.88-22.07 22.07-22.07s22.07 9.88 22.07 22.07v56.32c0 12.19-9.88 22.12-22.07 22.12z m215.72 0c-12.18 0-22.07-9.88-22.07-22.07v-56.37c0-12.18 9.88-22.07 22.07-22.07s22.07 9.88 22.07 22.07v56.32c0 12.19-9.88 22.12-22.07 22.12z"  p-id="3150"></path><path d="M690.83 334.43h-26.61v22.37c0 22.75-15.39 44.28-37.9 47.55-27.46 3.99-51.14-17.33-51.14-44.04v-25.88H449.64c-0.66 0-1.2 0.54-1.2 1.2v21.17c0 22.75-15.39 44.28-37.9 47.55-27.46 3.99-51.14-17.33-51.14-44.04v-25.88h-25.41c-28.79 0-52.13 23.34-52.13 52.13v303.15c0 28.79 23.34 52.13 52.13 52.13h355.7c28.79 0 52.13-23.34 52.13-52.13V385.36c-0.07-28.13-22.86-50.93-50.99-50.93zM659.79 707.6H355.14c-19.59 0-35.48-15.88-35.48-35.48V429.48c0-0.66 0.54-1.2 1.2-1.2h381.81c0.46 0.46 0.74 0.73 1.2 1.18l3.72 229.55c0.45 26.71-21.09 48.59-47.8 48.59z"  p-id="3151"></path><path d="M369.74 663.19c-6.05 0-12.08-2.36-16.6-7.05-8.83-9.17-8.55-23.76 0.63-32.59l64.9-62.5c19.38-18.65 48.38-22.64 72.08-9.8l69.68 37.68c4.35 2.3 9.6 1.02 12.42-2.93l62.6-88.87c7.3-10.4 21.63-12.89 32.1-5.58 10.4 7.33 12.9 21.7 5.55 32.1l-62.6 88.89c-16.25 23.05-47.17 30.31-71.97 16.92l-69.67-37.69c-6-3.2-13.33-2.28-18.23 2.47l-64.9 62.5a22.972 22.972 0 0 1-15.99 6.45z" p-id="3152"></path></svg>