<?xml version="1.0" standalone="no"?><!DOCTYPE svg PUBLIC "-//W3C//DTD SVG 1.1//EN" "http://www.w3.org/Graphics/SVG/1.1/DTD/svg11.dtd"><svg t="1575257137233" class="icon" viewBox="0 0 1024 1024" version="1.1" xmlns="http://www.w3.org/2000/svg" p-id="2687" xmlns:xlink="http://www.w3.org/1999/xlink" width="128" height="128"><defs><style type="text/css"></style></defs><path d="M511.1 901.2C296.6 901.2 122 726.7 122 512.1c0-19.5 15.8-35.4 35.4-35.4 19.5 0 35.4 15.8 35.4 35.4 0 175.5 142.8 318.4 318.4 318.4 85.6 0 165.8-33.8 224.8-92.8h-68c-9.4 0-18.4-3.7-25-10.4-6.6-6.6-10.4-15.6-10.4-25s3.7-18.4 10.4-25c6.6-6.6 15.6-10.4 25-10.3h141.5c12.9 0 24.8 7.1 31 18.4 6.2 11.3 5.7 25.1-1.2 36.1C767.2 834 644.6 901.2 511.1 901.2z m353.8-353.7c-19.5 0-35.4-15.8-35.4-35.4 0-175.5-142.8-318.4-318.4-318.4-85.6 0-165.8 33.9-224.8 92.8h68c9.4 0 18.4 3.7 25 10.4 6.6 6.6 10.4 15.6 10.4 25s-3.7 18.4-10.4 25c-6.6 6.6-15.6 10.4-25 10.4H212.8c-12.9 0-24.8-7.1-31-18.4-6.2-11.3-5.8-25.1 1.1-36C254.9 190.3 377.6 123 511.1 123c214.5 0 389.1 174.6 389.1 389.1 0 19.6-15.8 35.4-35.3 35.4z m0 0" fill="#9696A3" p-id="2688"></path></svg>