<?xml version="1.0" standalone="no"?><!DOCTYPE svg PUBLIC "-//W3C//DTD SVG 1.1//EN" "http://www.w3.org/Graphics/SVG/1.1/DTD/svg11.dtd"><svg t="1576455409658" class="icon" viewBox="0 0 1024 1024" version="1.1" xmlns="http://www.w3.org/2000/svg" p-id="3019" xmlns:xlink="http://www.w3.org/1999/xlink" width="128" height="128"><defs><style type="text/css"></style></defs><path d="M324.12 721.28c-4.43 0-8.88-1.26-12.83-3.91-10.55-7.09-13.38-21.41-6.27-31.98l124.38-185.2c7.13-10.54 21.42-13.36 31.98-6.27 10.55 7.09 13.38 21.41 6.27 31.97l-124.38 185.2c-4.45 6.62-11.72 10.19-19.15 10.19z" p-id="3020"></path><path d="M324.15 693.63m-42.41 0a42.41 42.41 0 1 0 84.82 0 42.41 42.41 0 1 0-84.82 0Z" p-id="3021"></path><path d="M448.52 513.04m-42.41 0a42.41 42.41 0 1 0 84.82 0 42.41 42.41 0 1 0-84.82 0Z"  p-id="3022"></path><path d="M567.6 651.62m-42.41 0a42.41 42.41 0 1 0 84.82 0 42.41 42.41 0 1 0-84.82 0Z" p-id="3023"></path><path d="M699.85 450.18m-42.41 0a42.41 42.41 0 1 0 84.82 0 42.41 42.41 0 1 0-84.82 0Z" p-id="3024"></path><path d="M699.85 360.28m-23.04 0a23.04 23.04 0 1 0 46.08 0 23.04 23.04 0 1 0-46.08 0Z" fill="#AAAAB5" p-id="3025"></path><path d="M699.85 303.21m-15.24 0a15.24 15.24 0 1 0 30.48 0 15.24 15.24 0 1 0-30.48 0Z" fill="#AAAAB5" opacity=".58" p-id="3026"></path><path d="M567.6 674.67c-6.47 0-12.92-2.71-17.47-8.03L431.05 528.06c-8.3-9.65-7.2-24.2 2.45-32.49 9.63-8.26 24.2-7.24 32.5 2.46l119.08 138.59c8.3 9.65 7.2 24.2-2.45 32.49a23.054 23.054 0 0 1-15.03 5.56z"  p-id="3027"></path><path d="M567.57 674.67c-4.35 0-8.73-1.22-12.65-3.79-10.63-7-13.58-21.29-6.58-31.91l132.53-201.45c6.97-10.64 21.22-13.56 31.92-6.59 10.63 7 13.58 21.29 6.58 31.91L586.85 664.29c-4.43 6.73-11.78 10.38-19.28 10.38z" p-id="3028"></path></svg>