<?xml version="1.0" standalone="no"?><!DOCTYPE svg PUBLIC "-//W3C//DTD SVG 1.1//EN" "http://www.w3.org/Graphics/SVG/1.1/DTD/svg11.dtd"><svg t="1576459706830" class="icon" viewBox="0 0 1024 1024" version="1.1" xmlns="http://www.w3.org/2000/svg" p-id="3893" xmlns:xlink="http://www.w3.org/1999/xlink" width="128" height="128"><defs><style type="text/css"></style></defs><path d="M668.12 742.4c31.15 0 56.97-23.87 56.97-54.08s-25.82-54.08-56.97-54.08H355.88c-11.68 0-20.62-8.22-20.62-17.74 0-9.37 8.87-17.74 20.62-17.74h64.69c10.02 0 18.17-8.15 18.17-18.17-0.22-10.24-8.37-18.46-18.17-18.24h-64.69c-31.15 0-56.97 23.87-56.97 54.08s25.82 54.08 56.97 54.08h312.18c11.68 0 20.62 8.22 20.62 17.74 0 9.37-8.87 17.74-20.62 17.74h-260.4c-9.81-0.22-17.96 7.93-18.17 18.17 0 10.02 8.15 18.24 18.17 18.24h260.46zM529.16 281.6c-65.91-0.14-119.35 53.22-119.56 119.2 0 48.89 66.13 140.48 100.16 184.18 9.52 10.74 25.89 11.68 36.63 2.24l2.24-2.24C582.6 541.28 648.8 449.91 648.8 400.8c-0.22-65.98-53.73-119.27-119.64-119.2z m0 186.48c-17.74 0-34.76-7.07-47.38-19.61a66.962 66.962 0 0 1-19.61-47.38c0-17.74 7.07-34.76 19.61-47.31 12.55-12.55 29.57-19.54 47.38-19.47 36.49 0.65 65.69 30.43 65.69 66.92 0.01 36.49-29.27 66.28-65.69 66.85z" p-id="3894"></path></svg>