<?xml version="1.0" standalone="no"?><!DOCTYPE svg PUBLIC "-//W3C//DTD SVG 1.1//EN" "http://www.w3.org/Graphics/SVG/1.1/DTD/svg11.dtd"><svg t="1576459036012" class="icon" viewBox="0 0 1024 1024" version="1.1" xmlns="http://www.w3.org/2000/svg" p-id="3644" xmlns:xlink="http://www.w3.org/1999/xlink" width="128" height="128"><defs><style type="text/css"></style></defs><path d="M744.41 603.85c-1.27-6.66-6.4-12.03-13.31-13.57-4.35-1.02-8.19-3.84-10.24-7.68-0.26-0.26-0.26-0.51-0.26-0.77-2.05-3.58-2.56-7.68-1.28-11.78 0.26-0.51 0.26-1.02 0.26-1.28 0.77-3.07 0.26-6.15-0.77-8.96-1.28-4.1-4.09-7.94-7.67-10.5-6.4-5.38-13.57-9.73-21.25-12.54-0.51-0.26-1.03-0.51-1.54-0.77-7.68-3.07-16.89-2.56-22.52 3.07-6.4 6.4-17.16 6.4-23.3-0.26-4.09-4.35-10.24-6.14-16.64-4.86l-1.79 0.51c-9.98 3.33-18.94 8.45-27.14 14.85-6.14 4.86-10.24 13.06-7.93 20.74 1.28 4.1 0.76 8.7-1.54 12.54-2.31 3.84-5.89 6.66-10.24 7.68l-5.64 2.3c-3.84 2.56-6.66 6.66-7.42 11.26-1.28 5.63-1.79 11.52-1.79 17.15 0 4.35 0.26 8.7 1.28 13.06 0 1.28 0.26 2.82 0.51 4.1 1.02 6.91 6.4 12.29 13.06 13.83 4.35 1.02 8.19 3.58 10.24 7.68 0.51 0.77 0.77 1.28 1.03 2.05 1.27 3.33 1.54 6.91 0.51 10.5-2.05 6.66 0 13.82 5.12 18.18 8.44 7.42 17.92 12.8 28.41 16.64l3.08 1.02c5.89 1.54 12.54-0.26 16.89-4.86 6.14-6.66 17.15-6.66 23.55 0 3.07 3.58 7.68 5.63 12.55 5.63 2.04 0 4.09-0.51 5.63-1.02 11.01-3.84 20.99-9.73 29.69-17.15 2.56-2.3 4.1-5.12 4.35-8.19 0.26-2.82-0.76-5.63-2.3-7.94 3.58-0.77 6.4-3.33 7.94-6.65 1.79-4.1 1.02-8.19-0.77-11.52 2.04-2.05 4.86-3.84 8.19-4.35 6.66-1.54 11.78-6.91 13.06-13.83a96.53 96.53 0 0 0 1.54-17.15c-0.01-5.39-0.52-11.27-1.55-17.16z m-22.78 26.11c-3.58 1.28-6.91 2.82-9.73 4.86-0.25 0.26-0.25 0.51-0.25 0.51-4.61 3.07-8.71 7.17-11.52 12.29 0 0.26-0.26 0.26-0.26 0.51-2.56 4.86-3.32 10.24-1.53 14.85 1.02 3.07 2.56 5.38 4.35 7.17-1.54 0.51-2.82 1.28-4.1 2.3-5.63 4.86-11.77 8.7-18.43 11.26-2.04-1.79-4.35-3.33-6.91-4.61-5.89-3.07-12.29-4.86-19.2-4.86-9.47 0-18.69 3.33-25.86 9.47-5.63-2.3-10.75-5.12-15.36-8.7 1.79-9.47 0.26-18.94-4.61-27.39a39.84 39.84 0 0 0-13.31-13.57c-2.56-1.79-5.38-3.07-8.19-4.1-0.26-3.07-0.51-5.89-0.51-8.96 0-2.82 0.26-5.89 0.51-8.7 9.22-3.33 16.64-9.47 21.51-17.92 4.86-8.19 6.4-17.92 4.61-27.14 4.61-3.84 9.98-6.66 15.36-8.96 14.59 12.54 37.38 12.54 51.97 0 4.1 1.79 7.94 3.84 11.78 6.66 1.27 0.51 2.3 1.28 3.58 2.3-1.79 9.22-0.26 18.94 4.61 27.39 4.61 7.94 11.77 14.08 20.74 17.15 0.26 0.26 0.51 0.51 0.77 0.51 0.26 2.82 0.51 5.89 0.51 8.7-0.02 3.09-0.27 5.91-0.53 8.98z"  p-id="3645"></path><path d="M654.24 662.57c-22.88 0-41.47-18.61-41.47-41.49 0-22.86 18.6-41.47 41.47-41.47s41.47 18.61 41.47 41.47c0 7.85-2.2 15.48-6.35 22.05-1.63 2.63-4.22 4.51-7.33 5.24-1.95 0.44-3.85 0.4-5.65-0.04 0.07 1.89-0.3 3.78-1.13 5.55a11.787 11.787 0 0 1-6.73 6.14c-4.41 1.68-9.26 2.55-14.28 2.55z m9.17-16.42c-0.02 0-0.05 0.01-0.05 0.03 0-0.02 0.03-0.03 0.05-0.03z m-9.2-42.74c-9.75 0-17.67 7.92-17.67 17.67s7.92 17.69 17.67 17.69c2.15 0 4.23-0.36 6.13-1.08 2.35-0.84 4.78-0.96 7.08-0.39-0.13-2.4 0.5-4.78 1.83-6.85 1.72-2.79 2.65-6.04 2.65-9.38-0.01-9.74-7.94-17.66-17.69-17.66z m27.58 34.86c0 0.01 0 0.03-0.02 0.04 0.02-0.01 0.02-0.03 0.02-0.04z m-4.95-3.01c0 0.01-0.02 0.04-0.02 0.05-0.01-0.01 0.02-0.04 0.02-0.05z" p-id="3646"></path><path d="M400.61 547.02c-5.63-5.89-13.57-9.22-21.51-9.22-7.93 0-15.87 3.33-21.76 9.22-5.63 5.89-8.96 13.83-8.96 22.27 0 8.19 3.33 16.38 8.96 22.02 5.63 5.89 13.82 9.22 21.76 9.22 7.94 0 15.88-3.33 21.51-9.22 5.89-5.63 9.22-13.82 9.22-22.02-0.01-8.45-3.34-16.64-9.22-22.27z m218.88-76.29l-16.39-72.96c-2.04-11.52-13.31-21.25-24.83-21.25H421.34c-11.52 0-22.53 9.73-24.58 21.25l-16.39 72.96c-0.26 0.51-0.26 0.77-0.26 1.02-0.77 5.12 0.26 9.73 3.07 13.06 2.81 3.33 7.17 5.38 12.29 5.38h208.89c4.87 0 9.22-2.05 12.03-5.12 2.82-3.58 3.84-8.19 3.33-13.31-0.23-0.26-0.23-0.52-0.23-1.03z m-209.42-8.45l13.06-57.86h153.6l13.05 57.86H410.07z m209.42 8.45l-16.39-72.96c-2.04-11.52-13.31-21.25-24.83-21.25H421.34c-11.52 0-22.53 9.73-24.58 21.25l-16.39 72.96c-0.26 0.51-0.26 0.77-0.26 1.02-0.77 5.12 0.26 9.73 3.07 13.06 2.81 3.33 7.17 5.38 12.29 5.38h208.89c4.87 0 9.22-2.05 12.03-5.12 2.82-3.58 3.84-8.19 3.33-13.31-0.23-0.26-0.23-0.52-0.23-1.03z m-209.42-8.45l13.06-57.86h153.6l13.05 57.86H410.07zM379.1 537.8c-7.93 0-15.87 3.33-21.76 9.22-5.63 5.89-8.96 13.83-8.96 22.27 0 8.19 3.33 16.38 8.96 22.02 5.63 5.89 13.82 9.22 21.76 9.22 7.94 0 15.88-3.33 21.51-9.22 5.89-5.63 9.22-13.82 9.22-22.02 0-8.45-3.33-16.64-9.22-22.27-5.64-5.89-13.57-9.22-21.51-9.22z m321.02 109.82c0 0.26-0.26 0.26-0.26 0.51 4.36-3.58 8.45-7.94 11.78-12.8-4.6 3.08-8.7 7.17-11.52 12.29z m-83.71-162.56c2.82-3.58 3.84-8.19 3.33-13.31-0.26-0.26-0.26-0.51-0.26-1.02l-16.39-72.96c-2.04-11.52-13.31-21.25-24.83-21.25H421.34c-11.52 0-22.53 9.73-24.58 21.25l-16.39 72.96c-0.26 0.51-0.26 0.77-0.26 1.02-0.77 5.12 0.26 9.73 3.07 13.06 2.81 3.33 7.17 5.38 12.29 5.38h208.89c4.89-0.01 9.24-2.05 12.05-5.13z m-206.34-22.78l13.06-57.86h153.6l13.05 57.86H410.07z m-52.73 84.74c-5.63 5.89-8.96 13.83-8.96 22.27 0 8.19 3.33 16.38 8.96 22.02 5.63 5.89 13.82 9.22 21.76 9.22 7.94 0 15.88-3.33 21.51-9.22 5.89-5.63 9.22-13.82 9.22-22.02 0-8.45-3.33-16.64-9.22-22.27-5.63-5.89-13.57-9.22-21.51-9.22-7.93 0-15.87 3.33-21.76 9.22z m212.48 87.04H395.74c-7.17 0-13.06 5.38-13.57 12.54-1.02 11.52-9.98 19.97-20.99 19.97-11.26 0-20.48-9.22-20.99-20.74-0.51-6.14-4.61-11.52-10.5-12.8-15.62-3.84-25.6-17.92-24.58-34.56l4.61-62.21c1.28-16.38 13.06-30.98 28.93-35.84 5.38-1.54 8.96-6.14 9.73-11.52 0-1.02 0.26-1.79 0.26-2.56v-1.02l20.74-99.58c4.86-23.04 28.16-42.5 51.2-42.5H579.3c22.78 0 46.34 19.46 50.94 42.5l20.74 99.58v1.02c0.26 0.77 0.26 1.54 0.26 2.56 0.77 5.38 4.35 9.98 9.73 11.52 14.08 4.35 25.09 16.64 28.16 30.72 0.51 1.79 0.51 3.33 0.77 5.12v0.51l0.26 3.84 1.79 24.32c1.28 0.51 2.3 1.28 3.58 2.3-1.79 9.22-0.26 18.94 4.61 27.39 4.61 7.94 11.78 14.08 20.74 17.15l-0.26-29.95-1.02-13.06-0.77-8.96-1.54-19.2-0.26-5.12v-1.28c-1.79-25.09-17.66-47.1-39.94-57.34l-20.22-97.02c-7.42-35.58-42.24-64.51-77.57-64.51H420.57c-35.58 0-70.4 28.93-77.82 64.51l-20.22 97.02c-22.27 10.24-37.89 32.26-39.68 57.34l-4.61 62.21c-2.05 26.88 12.8 50.94 36.1 60.67 5.38 21.5 24.32 37.38 46.85 37.38 20.74 0 38.66-13.31 45.31-32.77H593.38c6.66 19.2 24.32 32.77 45.31 32.77 13.57 0 25.86-5.89 34.56-15.36-5.89-3.07-12.29-4.86-19.2-4.86-9.47 0-18.69 3.33-25.86 9.47-5.63-2.3-10.75-5.12-15.36-8.7 1.79-9.47 0.26-18.94-4.61-27.39a39.84 39.84 0 0 0-13.31-13.57h-25.09z"  p-id="3647"></path></svg>