<?xml version="1.0" standalone="no"?><!DOCTYPE svg PUBLIC "-//W3C//DTD SVG 1.1//EN" "http://www.w3.org/Graphics/SVG/1.1/DTD/svg11.dtd"><svg t="1577924839399" class="icon" viewBox="0 0 1024 1024" version="1.1" xmlns="http://www.w3.org/2000/svg" p-id="3585" xmlns:xlink="http://www.w3.org/1999/xlink" width="200" height="200"><defs><style type="text/css"></style></defs><path d="M281.6 607.79c0-127.09 103.25-230.4 230.4-230.4s230.4 102.9 230.4 230.4-103.25 230.4-230.4 230.4-230.4-103.31-230.4-230.4z" fill="#FFFFFF" p-id="3586"></path><path d="M538.27 141.93l-0.84-1.27c-6.33-8.02-15.61-12.66-25.74-12.66-10.13 0-19.83 4.64-25.74 12.66v0.84h-0.42v0.42l-211.41 303.4c-0.42 0.84-0.42 1.27-1.27 2.11l-0.84 0.84c-31.65 47.26-48.53 102.96-48.53 159.93C223.47 767.3 352.6 896 512.11 896c106.34 0 204.24-58.23 254.45-151.91 50.22-93.68 44.31-207.61-14.77-295.81l-0.84-0.84c-0.42-0.84-0.42-1.27-1.27-2.11l-211.41-303.4z m-247.7 465.86c0-121.53 99.59-221.12 221.12-221.12S732.8 486.26 732.8 607.79s-99.59 221.12-221.12 221.12-221.11-99.59-221.11-221.12z" fill="#FF0000" p-id="3587"></path><path d="M376.33 704c28.27-5.49 59.5-12.66 93.68-20.68-0.42 10.13-0.84 16.88-0.84 20.25-24.9 5.49-53.59 12.66-86.93 21.52L376.33 704z m34.61-63.3c15.19-2.11 32.91-4.64 53.17-8.02-1.27 7.17-1.69 13.93-2.53 20.25-20.68 2.95-45.57 6.75-75.53 11.39l-4.22-19.83c10.97-11.39 24.47-31.23 40.93-59.08-18.99 1.27-32.49 2.11-40.93 2.95l-5.06-18.57c16.46-21.52 33.34-53.59 51.48-95.79l20.68 8.02c-17.72 34.18-33.34 62.87-48.11 86.08 11.39-0.42 21.94-0.42 32.49-0.84 6.75-11.82 13.93-25.32 21.52-39.67l20.25 8.86c-25.74 46.02-47.26 80.62-64.14 104.25z m55.28-73.84c22.79-29.54 40.09-60.34 51.9-92.41l20.25 6.75c-3.8 8.02-7.6 16.46-11.39 24.05h101.7v19.41c-13.93 24.05-32.07 45.15-54.01 63.3 20.68 14.35 45.15 23.63 73 28.27-3.8 8.86-6.75 16.46-9.28 23.21-31.65-8.86-58.23-21.94-80.18-38.82-24.05 16.88-52.33 30.38-84.4 41.35-2.95-6.75-5.91-13.08-9.28-18.99 30.38-8.44 56.55-20.25 78.91-35.45-14.35-13.5-26.16-29.54-35.45-47.26-8.86 14.35-18.15 27.85-28.27 40.93-3.38-4.22-8.02-8.86-13.5-14.34z m20.25 135.45l8.44-18.99c33.34 8.86 74.69 21.1 124.06 36.71l-10.13 21.52c-45.99-16.87-86.92-29.95-122.37-39.24z m30.8-49.37l8.02-18.15c27.43 8.02 54.44 16.88 81.86 27.01l-8.86 21.52c-26.58-11.81-54.01-21.94-81.02-30.38z m87.78-129.55h-86.08c10.97 20.68 24.47 38.4 40.51 52.33 18.14-14.77 33.33-32.49 45.57-52.33z" fill="#FF0000" p-id="3588"></path></svg>