<?xml version="1.0" standalone="no"?><!DOCTYPE svg PUBLIC "-//W3C//DTD SVG 1.1//EN" "http://www.w3.org/Graphics/SVG/1.1/DTD/svg11.dtd"><svg t="1572402545107" class="icon" viewBox="0 0 1024 1024" version="1.1" xmlns="http://www.w3.org/2000/svg" p-id="2708" xmlns:xlink="http://www.w3.org/1999/xlink" width="200" height="200"><defs><style type="text/css"></style></defs><path d="M237.568 395.776c0 158.72 123.904 287.744 276.48 287.744s276.48-128.512 276.48-287.744-123.904-287.744-276.48-287.744-276.48 129.024-276.48 287.744z" fill="#FFFFFF" p-id="2709"></path><path d="M802.816 592.896c1.024-1.024 1.024-1.536 1.536-2.56l1.024-1.024c71.68-107.008 78.848-245.248 17.92-358.912S643.584 46.08 514.56 46.08C321.024 46.08 164.352 202.24 164.352 395.264c0 69.12 20.48 136.704 58.88 194.048l1.024 1.024c1.024 1.024 1.024 1.536 1.536 2.56l256.512 368.128v0.512h0.512v1.024c7.168 9.728 18.944 15.36 31.232 15.36s23.552-5.632 31.232-15.36l1.024-1.536 256.512-368.128z m-288.768-465.408c147.456 0 268.288 120.832 268.288 268.288s-120.832 268.288-268.288 268.288S245.76 543.232 245.76 395.776s120.832-268.288 268.288-268.288z" fill="#FF0000" p-id="2710"></path><path d="M369.152 504.32c34.304-6.656 72.192-15.36 113.664-25.088-0.512 12.288-1.024 20.48-1.024 24.576-30.208 6.656-65.024 15.36-105.472 26.112l-7.168-25.6z m41.984-76.8c18.432-2.56 39.936-5.632 64.512-9.728-1.536 8.704-2.048 16.896-3.072 24.576-25.088 3.584-55.296 8.192-91.648 13.824l-5.12-24.064c13.312-13.824 29.696-37.888 49.664-71.68-23.04 1.536-39.424 2.56-49.664 3.584l-6.144-22.528C389.632 315.392 410.112 276.48 432.128 225.28l25.088 9.728c-21.504 41.472-40.448 76.288-58.368 104.448 13.824-0.512 26.624-0.512 39.424-1.024 8.192-14.336 16.896-30.72 26.112-48.128l24.576 10.752c-31.232 55.808-57.344 97.792-77.824 126.464zM478.208 337.92c27.648-35.84 48.64-73.216 62.976-112.128l24.576 8.192c-4.608 9.728-9.216 19.968-13.824 29.184h123.392V286.72c-16.896 29.184-38.912 54.784-65.536 76.8 25.088 17.408 54.784 28.672 88.576 34.304-4.608 10.752-8.192 19.968-11.264 28.16-38.4-10.752-70.656-26.624-97.28-47.104-29.184 20.48-63.488 36.864-102.4 50.176-3.584-8.192-7.168-15.872-11.264-23.04 36.864-10.24 68.608-24.576 95.744-43.008-17.408-16.384-31.744-35.84-43.008-57.344-10.752 17.408-22.016 33.792-34.304 49.664-4.096-5.12-9.728-10.752-16.384-17.408z m24.576 164.352l10.24-23.04c40.448 10.752 90.624 25.6 150.528 44.544l-12.288 26.112c-55.808-20.48-105.472-36.352-148.48-47.616z m37.376-59.904l9.728-22.016c33.28 9.728 66.048 20.48 99.328 32.768l-10.752 26.112c-32.256-14.336-65.536-26.624-98.304-36.864z m106.496-157.184h-104.448c13.312 25.088 29.696 46.592 49.152 63.488 22.016-17.92 40.448-39.424 55.296-63.488z" fill="#FF0000" p-id="2711"></path></svg>