<?xml version="1.0" standalone="no"?><!DOCTYPE svg PUBLIC "-//W3C//DTD SVG 1.1//EN" "http://www.w3.org/Graphics/SVG/1.1/DTD/svg11.dtd"><svg t="1577924827087" class="icon" viewBox="0 0 1024 1024" version="1.1" xmlns="http://www.w3.org/2000/svg" p-id="3359" xmlns:xlink="http://www.w3.org/1999/xlink" width="200" height="200"><defs><style type="text/css"></style></defs><path d="M283.6 608.79c0-127.09 103.25-230.4 230.4-230.4s230.4 102.9 230.4 230.4-103.25 230.4-230.4 230.4-230.4-103.31-230.4-230.4z" fill="#FFFFFF" p-id="3360"></path><path d="M540.27 142.93l-0.84-1.27c-6.33-8.02-15.61-12.66-25.74-12.66s-19.83 4.64-25.74 12.66v0.84h-0.42v0.42l-211.41 303.4c-0.42 0.84-0.42 1.27-1.27 2.11l-0.84 0.84c-31.65 47.26-48.53 102.96-48.53 159.93C225.47 768.3 354.6 897 514.11 897c106.34 0 204.24-58.23 254.45-151.91 50.22-93.68 44.31-207.61-14.77-295.81l-0.84-0.84c-0.42-0.84-0.42-1.27-1.27-2.11l-211.41-303.4z m-247.7 465.86c0-121.53 99.59-221.12 221.12-221.12S734.8 487.26 734.8 608.79s-99.59 221.12-221.12 221.12-221.11-99.59-221.11-221.12z" fill="#FBB03B" p-id="3361"></path><path d="M396.93 535.61h104.52v-59.18h23.35v59.18h105.6v123.8h-22.26v-14.66H524.8v100.99h-23.35v-101h-82.26v14.66h-22.26V535.61z m22.26 89.04h82.26V555.7h-82.26v68.95z m188.95-68.95H524.8v68.96h83.35V555.7z" fill="#FBB03B" p-id="3362"></path></svg>