<?xml version="1.0" standalone="no"?><!DOCTYPE svg PUBLIC "-//W3C//DTD SVG 1.1//EN" "http://www.w3.org/Graphics/SVG/1.1/DTD/svg11.dtd"><svg t="1577924833992" class="icon" viewBox="0 0 1024 1024" version="1.1" xmlns="http://www.w3.org/2000/svg" p-id="3472" xmlns:xlink="http://www.w3.org/1999/xlink" width="200" height="200"><defs><style type="text/css"></style></defs><path d="M287.16 418.45c0 127.09 103.25 230.4 230.4 230.4s230.4-102.9 230.4-230.4-103.25-230.4-230.4-230.4-230.4 103.31-230.4 230.4z" fill="#FFFFFF" p-id="3473"></path><path d="M755.68 580.91c0.84-0.84 0.84-1.27 1.27-2.11l0.84-0.84c59.08-88.19 64.98-202.13 14.77-295.81-50.22-93.68-148.11-151.91-254.45-151.91-159.51 0-288.63 128.7-288.63 287.79 0 56.97 16.88 112.67 48.53 159.93l0.84 0.84c0.84 0.84 0.84 1.27 1.27 2.11l211.41 303.4v0.42h0.42v0.84c5.91 8.02 15.61 12.66 25.74 12.66 10.13 0 19.41-4.64 25.74-12.66l0.84-1.27 211.41-303.39z m-238-383.58c121.53 0 221.12 99.59 221.12 221.12s-99.59 221.12-221.12 221.12-221.12-99.59-221.12-221.12 99.6-221.12 221.12-221.12z" fill="#FBB03B" p-id="3474"></path><path d="M401.37 335.58h104.52V276.4h23.35v59.18h105.61v123.8h-22.26v-14.66h-83.35V545.7h-23.35V444.71h-82.26v14.66h-22.26V335.58z m22.26 89.04h82.26v-68.96h-82.26v68.96z m188.95-68.95h-83.35v68.96h83.35v-68.96z" fill="#FBB03B" p-id="3475"></path></svg>