<?xml version="1.0" standalone="no"?><!DOCTYPE svg PUBLIC "-//W3C//DTD SVG 1.1//EN" "http://www.w3.org/Graphics/SVG/1.1/DTD/svg11.dtd"><svg t="1572402556729" class="icon" viewBox="0 0 1024 1024" version="1.1" xmlns="http://www.w3.org/2000/svg" p-id="2821" xmlns:xlink="http://www.w3.org/1999/xlink" width="200" height="200"><defs><style type="text/css"></style></defs><path d="M237.568 395.776c0 158.72 123.904 287.744 276.48 287.744s276.48-128.512 276.48-287.744-123.904-287.744-276.48-287.744-276.48 129.024-276.48 287.744z" fill="#FFFFFF" p-id="2822"></path><path d="M802.816 592.896c1.024-1.024 1.024-1.536 1.536-2.56l1.024-1.024c71.68-107.008 78.848-245.248 17.92-358.912S643.584 46.08 514.56 46.08C321.024 46.08 164.352 202.24 164.352 395.264c0 69.12 20.48 136.704 58.88 194.048l1.024 1.024c1.024 1.024 1.024 1.536 1.536 2.56l256.512 368.128v0.512h0.512v1.024c7.168 9.728 18.944 15.36 31.232 15.36s23.552-5.632 31.232-15.36l1.024-1.536 256.512-368.128z m-288.768-465.408c147.456 0 268.288 120.832 268.288 268.288s-120.832 268.288-268.288 268.288S245.76 543.232 245.76 395.776s120.832-268.288 268.288-268.288z" fill="#008857" p-id="2823"></path><path d="M370.176 521.728c16.896-29.184 25.6-73.216 27.136-132.096l24.576 1.536c-0.512 21.504-2.56 40.96-4.608 59.392 8.192 17.408 18.944 31.744 32.768 42.496v-122.88H371.712v-24.064h67.584v-47.104H383.488v-24.064h55.808v-46.592h25.6v46.592h55.296v24.064H464.896v47.104h61.952v24.064H474.112v51.2h50.176v23.552h-50.176V506.88c15.36 6.144 32.768 9.216 52.736 9.728 53.76 0.512 110.592 0 169.984-1.536-4.096 9.728-7.168 18.432-9.216 26.112-69.12 0-124.928 0-167.936-1.024-53.248-1.024-89.088-19.968-108.544-57.344-6.144 28.672-14.848 52.224-26.624 70.144-4.096-10.752-9.216-20.992-14.336-31.232z m197.12-84.992c0 11.776 6.144 17.92 17.92 17.92h56.32c12.288 0 18.944-5.12 20.48-15.872 1.536-9.728 2.56-24.576 3.584-44.032 6.656 3.072 15.36 6.144 25.088 9.728-2.048 21.504-4.096 36.864-6.144 46.592-3.072 18.432-16.896 27.648-39.936 27.648H578.56c-24.576 0-36.352-12.288-36.352-37.376v-107.52h102.4V271.36h-109.056v-23.552h133.632V368.64H645.12v-11.264h-77.824v79.36z" fill="#008857" p-id="2824"></path></svg>