<?xml version="1.0" standalone="no"?><!DOCTYPE svg PUBLIC "-//W3C//DTD SVG 1.1//EN" "http://www.w3.org/Graphics/SVG/1.1/DTD/svg11.dtd"><svg t="1577924846065" class="icon" viewBox="0 0 1024 1024" version="1.1" xmlns="http://www.w3.org/2000/svg" p-id="3698" xmlns:xlink="http://www.w3.org/1999/xlink" width="200" height="200"><defs><style type="text/css"></style></defs><path d="M281.6 607.79c0-127.09 103.25-230.4 230.4-230.4s230.4 102.9 230.4 230.4-103.25 230.4-230.4 230.4-230.4-103.31-230.4-230.4z" fill="#FFFFFF" p-id="3699"></path><path d="M538.27 141.93l-0.84-1.27c-6.33-8.02-15.61-12.66-25.74-12.66-10.13 0-19.83 4.64-25.74 12.66v0.84h-0.42v0.42l-211.41 303.4c-0.42 0.84-0.42 1.27-1.27 2.11l-0.84 0.84c-31.65 47.26-48.53 102.96-48.53 159.93C223.47 767.3 352.6 896 512.11 896c106.34 0 204.24-58.23 254.45-151.91 50.22-93.68 44.31-207.61-14.77-295.81l-0.84-0.84c-0.42-0.84-0.42-1.27-1.27-2.11l-211.41-303.4z m-247.7 465.86c0-121.53 99.59-221.12 221.12-221.12S732.8 486.26 732.8 607.79s-99.59 221.12-221.12 221.12-221.11-99.59-221.11-221.12z" fill="#008857" p-id="3700"></path><path d="M377.39 715.82c13.93-24.05 21.1-60.34 22.36-108.87l20.25 1.27c-0.42 17.72-2.11 33.76-3.8 48.95 6.75 14.35 15.61 26.16 27.01 35.02V590.91h-64.56v-19.83h55.7v-38.82h-46v-19.83h46v-38.4h21.1v38.4h45.57v19.83h-45.57v38.82h51.06v19.83h-43.46v42.2h41.35v19.41h-41.35v51.06c12.66 5.06 27.01 7.6 43.46 8.02 44.31 0.42 91.15 0 140.1-1.27-3.38 8.02-5.91 15.19-7.6 21.52-56.97 0-102.96 0-138.41-0.84-43.89-0.84-73.42-16.46-89.46-47.26-5.06 23.63-12.24 43.04-21.94 57.81-3.37-8.87-7.59-17.31-11.81-25.74z m162.46-70.05c0 9.71 5.06 14.77 14.77 14.77h46.42c10.13 0 15.61-4.22 16.88-13.08 1.27-8.02 2.11-20.26 2.95-36.29 5.49 2.53 12.66 5.06 20.68 8.02-1.69 17.72-3.38 30.38-5.06 38.4-2.53 15.19-13.93 22.79-32.91 22.79h-54.44c-20.25 0-29.96-10.13-29.96-30.8v-88.62h84.4v-51.48H513.7v-19.41h110.14v99.59h-19.83v-9.28h-64.14v65.39z" fill="#008857" p-id="3701"></path></svg>