<?xml version="1.0" standalone="no"?><!DOCTYPE svg PUBLIC "-//W3C//DTD SVG 1.1//EN" "http://www.w3.org/Graphics/SVG/1.1/DTD/svg11.dtd"><svg t="1572402564044" class="icon" viewBox="0 0 1024 1024" version="1.1" xmlns="http://www.w3.org/2000/svg" p-id="2934" xmlns:xlink="http://www.w3.org/1999/xlink" width="200" height="200"><defs><style type="text/css"></style></defs><path d="M237.568 395.776c0 158.72 123.904 287.744 276.48 287.744s276.48-128.512 276.48-287.744-123.904-287.744-276.48-287.744-276.48 129.024-276.48 287.744z" fill="#FFFFFF" p-id="2935"></path><path d="M802.816 592.896c1.024-1.024 1.024-1.536 1.536-2.56l1.024-1.024c71.68-107.008 78.848-245.248 17.92-358.912S643.584 46.08 514.56 46.08C321.024 46.08 164.352 202.24 164.352 395.264c0 69.12 20.48 136.704 58.88 194.048l1.024 1.024c1.024 1.024 1.024 1.536 1.536 2.56l256.512 368.128v0.512h0.512v1.024c7.168 9.728 18.944 15.36 31.232 15.36 12.288 0 23.552-5.632 31.232-15.36l1.024-1.536 256.512-368.128z m-288.768-465.408c147.456 0 268.288 120.832 268.288 268.288s-120.832 268.288-268.288 268.288S245.76 543.232 245.76 395.776c0-147.456 120.832-268.288 268.288-268.288z" fill="#FBA105" p-id="2936"></path><path d="M368.64 387.584c30.72-48.64 53.248-101.376 67.072-159.232l24.576 6.144c-8.192 27.648-16.896 53.248-26.112 76.8v239.104h-22.528V360.448c-10.24 19.968-20.992 37.888-32.256 54.272-3.584-9.216-7.168-18.432-10.752-27.136z m83.456 3.072h239.616v51.712h-23.04v-30.72H475.136v30.72h-23.04V390.656zM460.8 264.192h99.84c-4.608-9.728-9.728-19.968-15.36-29.184l22.528-9.728c7.168 12.8 13.824 26.112 19.968 38.912h100.864v20.992H460.8v-20.992z m24.064 175.104h173.568v20.992H593.92v47.616c0 25.6-11.776 38.4-35.328 38.4-10.752 0-24.576 0-41.472-0.512-1.536-7.68-3.072-16.384-5.12-25.6 14.336 1.536 27.648 2.56 39.424 2.56 12.8 0 18.944-7.168 18.944-21.504v-40.96H484.864v-20.992z m3.072-134.656h165.376v73.216h-23.04v-8.704H510.976v8.704h-23.04V304.64z m142.336 19.968H510.976v25.088h119.296v-25.088z" fill="#FBA105" p-id="2937"></path></svg>