<?xml version="1.0" standalone="no"?><!DOCTYPE svg PUBLIC "-//W3C//DTD SVG 1.1//EN" "http://www.w3.org/Graphics/SVG/1.1/DTD/svg11.dtd"><svg t="1576740540828" class="icon" viewBox="0 0 1024 1024" version="1.1" xmlns="http://www.w3.org/2000/svg" p-id="3421" xmlns:xlink="http://www.w3.org/1999/xlink" width="128" height="128"><defs><style type="text/css"></style></defs><path d="M512 512m-384 0a384 384 0 1 0 768 0 384 384 0 1 0-768 0Z" fill="#AD7AE1" p-id="3422"></path><path d="M718.22 408.1c0-17.59-8.97-33.95-23.71-43.5l-80.34-51.83c-7.54-4.85-17.44 0.54-17.44 9.5v2.45c0 8.13 4.12 15.68 10.97 20.09l5.93 3.77c10.24 6.57 16.41 17.83 16.41 29.98v41.3c0 22.29 18.08 40.37 40.37 40.37 6.22 0 11.32 5.05 11.32 11.32v186.31c0 11.02-8.91 19.94-19.94 19.94h-13.91c-6.08 0-10.97-4.9-10.97-10.97V542.72c0-24.98-20.28-45.27-45.27-45.27h-8.82c-8.97 0-16.22-7.25-16.22-16.22V345.29c0-19.84-16.12-35.96-35.96-35.96H340.96c-19.84 0-35.96 16.12-35.96 35.96v352.33c0 9.06 7.35 16.36 16.36 16.36h228.88c9.06 0 16.36-7.35 16.36-16.36v-147.7c0-8.97 7.25-16.22 16.22-16.22h1.13c8.96 0 16.22 7.25 16.22 16.22v139.32c0 13.67 11.07 24.74 24.74 24.74l72.06 0.1c11.86 0 21.51-9.6 21.51-21.51l-0.26-284.47zM486.99 541.54H384.11c-5.39 0-9.8-4.41-9.8-9.8v-27.43c0-5.39 4.41-9.8 9.8-9.8h102.88c5.39 0 9.8 4.41 9.8 9.8v27.43c0 5.39-4.41 9.8-9.8 9.8z m37.97-99.94c0 5.39-4.41 9.8-9.8 9.8H356.44c-5.39 0-9.8-4.41-9.8-9.8v-78.38c0-5.39 4.41-9.8 9.8-9.8h158.72c5.39 0 9.8 4.41 9.8 9.8v78.38z m0 0" fill="#FFFFFF" p-id="3423"></path></svg>