<?xml version="1.0" standalone="no"?><!DOCTYPE svg PUBLIC "-//W3C//DTD SVG 1.1//EN" "http://www.w3.org/Graphics/SVG/1.1/DTD/svg11.dtd"><svg t="1576741128698" class="icon" viewBox="0 0 1024 1024" version="1.1" xmlns="http://www.w3.org/2000/svg" p-id="3668" xmlns:xlink="http://www.w3.org/1999/xlink" width="128" height="128"><defs><style type="text/css"></style></defs><path d="M512 512m-384 0a384 384 0 1 0 768 0 384 384 0 1 0-768 0Z" fill="#FF5252" p-id="3669"></path><path d="M551.58 714c20.83-51.22 17.74-110.29 17.74-110.29-21.88 7.46-42.63 37.46-42.63 37.46-45.4-38.24-29.42-117.64-29.42-117.64-68.67 63.6-29.47 193.27-29.47 193.27-166.11-84.5-60.82-240.78-60.82-240.78C473.63 377.1 449.1 307.2 449.1 307.2c138 74.6 105.8 203.4 105.8 203.4 44.34-22.72 39.91-92.56 39.91-92.56C740.34 607.91 551.59 714 551.58 714z" fill="#FFFFFF" p-id="3670"></path></svg>