<?xml version="1.0" standalone="no"?><!DOCTYPE svg PUBLIC "-//W3C//DTD SVG 1.1//EN" "http://www.w3.org/Graphics/SVG/1.1/DTD/svg11.dtd"><svg t="1576741152264" class="icon" viewBox="0 0 1024 1024" version="1.1" xmlns="http://www.w3.org/2000/svg" p-id="4037" xmlns:xlink="http://www.w3.org/1999/xlink" width="128" height="128"><defs><style type="text/css"></style></defs><path d="M512 512m-384 0a384 384 0 1 0 768 0 384 384 0 1 0-768 0Z" fill="#6B8BB2" p-id="4038"></path><path d="M537.17 527.99L569.18 544v-96.03h32.01V544l48.02 112.03h-80.03v-32l-32.01 32H297.1l-32.01-32V544h16v-64.02h16.01V367.95h128.03l48.02 112.03h16l16.01-16.01v-64.02h-16.01v-32.01h16.01v16h16v80.03h16.01v64.02zM377.12 576v32.02h80.02V576h-80.02z m144.04-16H313.1c-19.35 0-32.01 14.01-32.01 32.01 0 15.99 12.66 32.02 32.01 32.02h208.06c19.32 0 32.01-16.03 32.01-32.02 0-18.01-12.69-32.01-32.01-32.01z m96.03-64.01l13.16 49.29 34.85 110.75h64.02c32 1.62 53.08-99.7-17.8-100.7-1.68-0.02-3.36 0.12-4.99 0.35-1.5-1-3.05-1.93-4.65-2.77-9-65.82-66.38-57.3-84.59-56.92z m-288.08-16.01h112.03l-32.01-80.03h-80.02v80.03z m0 0" fill="#FFFFFF" p-id="4039"></path></svg>