<?xml version="1.0" standalone="no"?><!DOCTYPE svg PUBLIC "-//W3C//DTD SVG 1.1//EN" "http://www.w3.org/Graphics/SVG/1.1/DTD/svg11.dtd"><svg t="1576741142302" class="icon" viewBox="0 0 1024 1024" version="1.1" xmlns="http://www.w3.org/2000/svg" p-id="3914" xmlns:xlink="http://www.w3.org/1999/xlink" width="128" height="128"><defs><style type="text/css"></style></defs><path d="M512 512m-384 0a384 384 0 1 0 768 0 384 384 0 1 0-768 0Z" fill="#27AFFF" p-id="3915"></path><path d="M355.6 288h161.48c94.28 0 151.32 55.9 151.32 136.64v1.14c0 91.49-71.13 138.88-159.78 138.88h-66.06V736H355.6V288z m155.85 199.31c43.46 0 68.89-25.98 68.89-59.83v-1.14c0-38.98-27.13-59.83-70.58-59.83h-67.2v120.81h68.89z m0 0" fill="#FFFFFF" p-id="3916"></path></svg>