<?xml version="1.0" standalone="no"?><!DOCTYPE svg PUBLIC "-//W3C//DTD SVG 1.1//EN" "http://www.w3.org/Graphics/SVG/1.1/DTD/svg11.dtd"><svg t="1576741135017" class="icon" viewBox="0 0 1024 1024" version="1.1" xmlns="http://www.w3.org/2000/svg" p-id="3791" xmlns:xlink="http://www.w3.org/1999/xlink" width="128" height="128"><defs><style type="text/css"></style></defs><path d="M512 512m-384 0a384 384 0 1 0 768 0 384 384 0 1 0-768 0Z" fill="#0368F9" p-id="3792"></path><path d="M418.63 391.46l52.33 198.2 7.17 36.56 6.45-36.56 47.67-198.2h33.33L493.9 659.55h-30.48l-55.55-199.27-6.45-37.63-7.17 37.63-59.13 199.27h-29.75l-69.53-268.09h34.05l44.8 198.91 6.45 36.56 7.15-36.56 55.93-198.91h34.41zM770.58 564.93l31.2 9.31c-14.83 61.17-51.5 91.51-110.05 91.04-75.5-3.59-114.8-48.86-117.9-135.84 4.05-91.51 43.85-139.65 119.35-144.44 53.5 0.73 88.15 27.01 103.92 78.85l-30.82 11.48c-14.58-43.49-39.43-64.39-74.55-62.73-53.75 3.59-82.2 42.06-85.3 115.41 2.4 68.33 30.83 105 85.3 110.03 41.82 0.01 68.1-24.37 78.85-73.11z" fill="#FFFFFF" p-id="3793"></path></svg>