<?xml version="1.0" standalone="no"?><!DOCTYPE svg PUBLIC "-//W3C//DTD SVG 1.1//EN" "http://www.w3.org/Graphics/SVG/1.1/DTD/svg11.dtd"><svg t="1576744002261" class="icon" viewBox="0 0 1024 1024" version="1.1" xmlns="http://www.w3.org/2000/svg" p-id="4160" xmlns:xlink="http://www.w3.org/1999/xlink" width="128" height="128"><defs><style type="text/css"></style></defs><path d="M512 512m-384 0a384 384 0 1 0 768 0 384 384 0 1 0-768 0Z" fill="#FD8A58" p-id="4161"></path><path d="M711.65 448.76L521.3 312.57c-5.5-3.93-12.95-3.93-18.05 0L311.72 448.76c-6.28 4.32-3.14 14.13 4.71 14.13h38.46v243.34c0 4.32 3.53 7.85 7.85 7.85h298.28c4.32 0 7.85-3.53 7.85-7.85V462.89h38.46c7.46 0 10.6-9.81 4.32-14.13z m-313.19 76.93h25.12c12.95-36.5 47.88-62.4 88.7-62.4 27.86 0 52.59 12.17 69.86 31.4l-28.26 16.09c-10.99-9.81-25.9-16.09-41.6-16.09-23.16 0-43.17 12.56-54.16 31h25.12l-42.39 42-42.39-42z m202.12 62.79c-13.34 36.5-47.88 62.4-88.7 62.4-27.47 0-52.2-11.77-69.47-31l28.26-16.09a61.8 61.8 0 0 0 41.21 15.7c23.15 0 43.17-12.56 54.16-31.01h-25.12l42.39-42 42 42h-24.73z m0 0" fill="#FFFFFF" p-id="4162"></path></svg>