<?xml version="1.0" standalone="no"?><!DOCTYPE svg PUBLIC "-//W3C//DTD SVG 1.1//EN" "http://www.w3.org/Graphics/SVG/1.1/DTD/svg11.dtd"><svg t="1576739964905" class="icon" viewBox="0 0 1024 1024" version="1.1" xmlns="http://www.w3.org/2000/svg" p-id="3296" xmlns:xlink="http://www.w3.org/1999/xlink" width="128" height="128"><defs><style type="text/css"></style></defs><path d="M512 512.01m-384 0a384 384 0 1 0 768 0 384 384 0 1 0-768 0Z" fill="#266299" p-id="3297"></path><path d="M381.63 437.36v277.32h252.86V437.36H381.63z m92.47 232.43h-20.38V485.61h20.38v184.18z m88.35 0h-20.38V485.61h20.38v184.18z m0 0M666.95 361.91h-107.9v-52.57H457.08v52.57H336.62v63.25h350.75v-63.25h-20.42z m-185.41 0v-32.18h53.08v32.14h-53.08v0.04z m0 0" fill="#FFFFFF" p-id="3298"></path><path d="M455.03 656.97c-6.83-0.1-13.34-2.89-18.13-7.77L312.6 524.9c-10.19-10.19-10.19-26.71 0-36.9 10.19-10.19 26.71-10.19 36.9 0l105.53 106.17L674.49 374.7c10.19-10.19 26.71-10.19 36.9 0 10.19 10.19 10.19 26.71 0 36.9L473.15 649.2a25.887 25.887 0 0 1-18.12 7.77z m0 0" fill="#1AFA29" p-id="3299"></path><path d="M512 971.97C258.38 971.97 52.03 765.63 52.03 512S258.38 52.03 512 52.03 971.97 258.38 971.97 512 765.63 971.97 512 971.97z m0-870.4c-226.33 0-410.42 184.1-410.42 410.42S285.67 922.42 512 922.42 922.42 738.33 922.42 512 738.33 101.57 512 101.57z" fill="#1AFA29" p-id="3300"></path></svg>