<?xml version="1.0" standalone="no"?><!DOCTYPE svg PUBLIC "-//W3C//DTD SVG 1.1//EN" "http://www.w3.org/Graphics/SVG/1.1/DTD/svg11.dtd"><svg t="1576740930136" class="icon" viewBox="0 0 1024 1024" version="1.1" xmlns="http://www.w3.org/2000/svg" p-id="3544" xmlns:xlink="http://www.w3.org/1999/xlink" width="128" height="128"><defs><style type="text/css"></style></defs><path d="M512 512m-384 0a384 384 0 1 0 768 0 384 384 0 1 0-768 0Z" fill="#5CDFFF" p-id="3545"></path><path d="M277.87 469.89c7.17-3.17 17.92-23.5 25.14-29.13 11.16-9.16 29.48-21.55 44.64-16.74 30.71 9.57 38.65 55.03 72.18 65.78 37.88 11.98 54.62-19.56 74.94-41.87 18.33-19.91 51.04-15.97 64.6 7.58 4.76 8.4 8.76 16.33 11.98 21.91 17.92 31.07 41.87 47.45 78.94 42.64 32.71-4.4 82.93-59.79 89.69-109.24 2.81-21.55-39.88 29.13-78.53 49.81-18.33 9.98-41.47 4.76-53.45-12.75-16.74-24.73-29.89-62.97-59.38-68.96-37.06-7.17-67.78 12.75-88.92 39.88-7.58 9.57-18.33 29.89-33.48 26.72-14.74-2.81-27.9-26.31-37.88-36.29-23.5-23.14-53.03-25.9-80.93-7.17-26.36 18.38-48.68 76.58-29.54 67.83z m0 0" fill="#FFFFFF" p-id="3546"></path><path d="M628.33 594.64c-43.05 0.41-57.79-76.94-94.09-84.93-29.49-6.4-47.86 10.75-73.77 36.65-21.14 21.19-51.81 21.96-69.36-6.71-15.56-25.9-30.71-85.33-76.12-61.38-15.56 8.39-30.31 21.91-38.29 37.47-14.74 27.9-10.39 58.97-4.81 53.8 7.58-6.76 9.57-22.73 20.73-43.46 8.75-16.33 27.13-29.48 36.65-25.14 11.16 5.58 15.56 28.31 17.92 35.89 5.99 19.91 15.15 35.47 29.89 50.22 30.3 30.3 72.18 26.72 94.91 3.99 1.18-1.18 2.82-2.81 3.99-4.4 18.32-21.55 52.62-17.56 66.19 7.17 0 0 0 0.41 0.41 0.41 20.32 36.29 59.79 59.38 104.43 49.45 42.29-9.57 65.37-35.89 88.51-69.37 13.98-20.32 21.91-43.46 21.91-61.79 0.46-18.31-55.75 81.77-129.1 82.13z m0 0" fill="#FFFFFF" p-id="3547"></path></svg>