<?xml version="1.0" encoding="utf-8"?>
<!-- Generator: Adobe Illustrator 23.0.0, SVG Export Plug-In . SVG Version: 6.00 Build 0)  -->
<svg version="1.1" id="图层_1" xmlns="http://www.w3.org/2000/svg" xmlns:xlink="http://www.w3.org/1999/xlink" x="0px" y="0px"
	 viewBox="0 0 1024 1024" style="enable-background:new 0 0 1024 1024;" xml:space="preserve">
<style type="text/css">
	.st0{fill:#0B0100;}
	.st1{fill:#B3B3B3;}
	.st2{fill:#FF0000;}
	.st3{fill:#FBB03B;}
	.st4{fill:#FFFFFF;}
	.st5{fill:none;stroke:#B3B3B3;stroke-width:1.8607;stroke-miterlimit:10;}
</style>
<g id="清扫车_2_">
	<path class="st0" d="M725.8,879.4H297.6c-20,0-36.3-18.9-36.3-42.2v-62.8c0-23.3,16.2-42.2,36.3-42.2h428.2
		c20,0,36.3,18.9,36.3,42.2v62.7C762.1,860.5,745.8,879.4,725.8,879.4z"/>
	<rect id="联接_5_" x="392.5" y="293.8" class="st1" width="238.4" height="12.3"/>
	<g>
		<g>
			<polygon class="st2" points="287.3,542.6 111.1,553.6 111.1,520.6 287.3,531.6 			"/>
			<polygon class="st2" points="289.2,525.4 131.1,446.8 147.6,418.2 294.8,515.9 			"/>
			<polygon class="st2" points="294.8,558.4 147.6,656.1 131.1,627.5 289.2,548.9 			"/>
		</g>
		<g>
			<polygon class="st2" points="736.2,542.6 912.4,553.6 912.4,520.6 736.2,531.6 			"/>
			<polygon class="st2" points="734.2,525.4 892.3,446.8 875.8,418.2 728.7,515.9 			"/>
			<polygon class="st2" points="728.7,558.4 875.8,656.1 892.3,627.5 734.2,548.9 			"/>
		</g>
	</g>
	<g>
		<path class="st3" d="M702.1,963.3H321.3c-19.9,0-36.1-16.2-36.1-36.1V301h453v626.1C738.2,947.1,722.1,963.3,702.1,963.3z"/>
	</g>
	<g id="车头_5_">
		<path class="st0" d="M761.8,169.4v73.3c0,6.9-5.3,12.4-11.8,12.4H277.3c-6.5,0-11.8-5.6-11.8-12.4v-73.3c0-2.3,0.6-4.5,1.6-6.3
			c2.1-3.7,5.8-6.1,10.2-6.1H750C756.5,156.9,761.8,162.5,761.8,169.4z"/>
		<g>
			<rect x="253.3" y="106.7" class="st0" width="51.5" height="21.7"/>
			<path class="st0" d="M279,131.9h-77.2c0-17.9,17.3-32.5,38.6-32.5S279,114,279,131.9z"/>
		</g>
		<g>
			<rect x="718.3" y="106.7" class="st0" width="51.7" height="21.7"/>
			<path class="st0" d="M744.2,131.9h77.5c0-17.9-17.3-32.5-38.7-32.5S744.2,114,744.2,131.9z"/>
		</g>
		<g>
			<path class="st3" d="M738.5,294.4h-453V147c0-54.1,43.4-98,97-98h259.1c53.5,0,97,43.9,97,98L738.5,294.4L738.5,294.4z"/>
		</g>
		<path class="st4" d="M296.7,281.9L296.7,281.9v-148l0,0c10.7,0,19.4,8.7,19.4,19.4v109.3C316.1,273.2,307.4,281.9,296.7,281.9z"/>
		<path class="st4" d="M732.8,283.7L732.8,283.7v-148l0,0c-10.7,0-19.4,8.7-19.4,19.4v109.3C713.4,275,722.1,283.7,732.8,283.7z"/>
		<path class="st4" d="M693.8,114H329.6v-0.7c0-21.5,17.5-39,39-39h286.2c21.5,0,39,17.5,39,39V114z"/>
		<path d="M693.8,115.2H330v-0.5c0-15.1,12.2-27.3,27.3-27.3h309.2c15.1,0,27.3,12.2,27.3,27.3V115.2L693.8,115.2z"/>
		<path class="st5" d="M597.5,294.5H426c-53.2,0-96.3-43.1-96.3-96.3v-82.4h364.2v82.3C693.8,251.4,650.7,294.5,597.5,294.5z"/>
	</g>
</g>
</svg>
