<?xml version="1.0" encoding="utf-8"?>
<!-- Generator: Adobe Illustrator 23.0.0, SVG Export Plug-In . SVG Version: 6.00 Build 0)  -->
<svg version="1.1" id="图层_1" xmlns="http://www.w3.org/2000/svg" xmlns:xlink="http://www.w3.org/1999/xlink" x="0px" y="0px"
	 viewBox="0 0 1024 1024" style="enable-background:new 0 0 1024 1024;" xml:space="preserve">
<style type="text/css">
	.st0{display:none;fill:#E6E6E6;enable-background:new    ;}
	.st1{font-family:'SourceHanSansCN-Medium-GBpc-EUC-H';}
	.st2{font-size:252.7474px;}
	.st3{fill:#0B0100;}
	.st4{fill:#B3B3B3;}
	.st5{fill:#FF0000;}
	.st6{fill:#5CDFFF;}
	.st7{fill:#FFFFFF;}
	.st8{fill:none;stroke:#B3B3B3;stroke-width:1.8607;stroke-miterlimit:10;}
</style>
<g id="垃圾车">
	<text transform="matrix(1.0824 0 0 1 374.8975 642.3379)" class="st0 st1 st2">垃</text>
</g>
<g id="清扫车充电">
	<path class="st3" d="M725.9,879.3H297.7c-20,0-36.3-18.9-36.3-42.2v-62.8c0-23.3,16.2-42.2,36.3-42.2h428.2
		c20,0,36.3,18.9,36.3,42.2v62.8C762.2,860.4,745.9,879.3,725.9,879.3z"/>
	<rect id="联接_10_" x="392.6" y="293.7" class="st4" width="238.4" height="12.3"/>
	<g>
		<g>
			<polygon class="st5" points="287.4,542.6 111.2,553.6 111.2,520.5 287.4,531.6 			"/>
			<polygon class="st5" points="289.3,525.3 131.2,446.7 147.7,418.1 294.9,515.8 			"/>
			<polygon class="st5" points="294.9,558.3 147.7,656 131.2,627.4 289.3,548.8 			"/>
		</g>
		<g>
			<polygon class="st5" points="736.3,542.6 912.5,553.6 912.5,520.5 736.3,531.6 			"/>
			<polygon class="st5" points="734.3,525.3 892.4,446.7 875.9,418.1 728.8,515.8 			"/>
			<polygon class="st5" points="728.8,558.3 875.9,656 892.4,627.4 734.3,548.8 			"/>
		</g>
	</g>
	<g>
		<path class="st6" d="M702.2,963.2H321.4c-19.9,0-36.1-16.2-36.1-36.1V300.9h453v626.2C738.3,947,722.2,963.2,702.2,963.2z"/>
	</g>
	<g id="车头_10_">
		<path class="st3" d="M761.9,169.3v73.3c0,6.9-5.3,12.4-11.8,12.4H277.4c-6.5,0-11.8-5.6-11.8-12.4v-73.3c0-2.3,0.6-4.5,1.6-6.3
			c2.1-3.7,5.8-6.1,10.2-6.1h472.7C756.6,156.9,761.9,162.5,761.9,169.3z"/>
		<g>
			<rect x="253.4" y="106.7" class="st3" width="51.5" height="21.7"/>
			<path class="st3" d="M279.1,131.9h-77.2c0-17.9,17.3-32.5,38.6-32.5S279.1,114,279.1,131.9z"/>
		</g>
		<g>
			<rect x="718.4" y="106.6" class="st3" width="51.7" height="21.7"/>
			<path class="st3" d="M744.3,131.9h77.5c0-17.9-17.3-32.5-38.7-32.5S744.3,114,744.3,131.9z"/>
		</g>
		<g>
			<path class="st6" d="M738.6,294.3h-453V147c0-54.1,43.4-98,97-98h259.1c53.5,0,97,43.9,97,98L738.6,294.3L738.6,294.3z"/>
		</g>
		<path class="st7" d="M296.8,281.8L296.8,281.8v-148l0,0c10.7,0,19.4,8.7,19.4,19.4v109.3C316.2,273.1,307.5,281.8,296.8,281.8z"/>
		<path class="st7" d="M732.9,283.6L732.9,283.6v-148l0,0c-10.7,0-19.4,8.7-19.4,19.4v109.3C713.5,274.9,722.2,283.6,732.9,283.6z"
			/>
		<path class="st7" d="M693.9,113.9H329.7v-0.7c0-21.5,17.5-39,39-39h286.2c21.5,0,39,17.5,39,39V113.9z"/>
		<path d="M693.9,115.1H330.1v-0.5c0-15.1,12.2-27.3,27.3-27.3h309.2c15.1,0,27.3,12.2,27.3,27.3L693.9,115.1L693.9,115.1z"/>
		<path class="st8" d="M597.6,294.4H426.1c-53.2,0-96.3-43.1-96.3-96.3v-82.4H694v82.4C693.9,251.3,650.8,294.4,597.6,294.4z"/>
	</g>
</g>
</svg>
