<?xml version="1.0" standalone="no"?><!DOCTYPE svg PUBLIC "-//W3C//DTD SVG 1.1//EN" "http://www.w3.org/Graphics/SVG/1.1/DTD/svg11.dtd"><svg t="1571283716891" class="icon" viewBox="0 0 1024 1024" version="1.1" xmlns="http://www.w3.org/2000/svg" p-id="1698" xmlns:xlink="http://www.w3.org/1999/xlink" width="128" height="128"><defs><style type="text/css"></style></defs><path d="M728.9 854.8H300.8c-20 0-36.3-18.9-36.3-42.2v-62.8c0-23.3 16.2-42.2 36.3-42.2H729c20 0 36.3 18.9 36.3 42.2v62.8c-0.1 23.4-16.4 42.2-36.4 42.2z" fill="#0B0100" p-id="1699"></path><path d="M395.6 269.3H634v12.3H395.6z" fill="#B3B3B3" p-id="1700"></path><path d="M705.2 938.7H324.4c-19.9 0-36.1-16.2-36.1-36.1V276.4h453v626.2c0 20-16.1 36.1-36.1 36.1z" fill="#B3B3B3" p-id="1701"></path><path d="M764.9 144.9v73.3c0 6.9-5.3 12.4-11.8 12.4H280.4c-6.5 0-11.8-5.6-11.8-12.4v-73.3c0-2.3 0.6-4.5 1.6-6.3 2.1-3.7 5.8-6.1 10.2-6.1h472.7c6.6 0 11.8 5.5 11.8 12.4zM256.4 82.2h51.5v21.7h-51.5z" fill="#0B0100" p-id="1702"></path><path d="M282.1 107.5h-77.2c0-17.9 17.3-32.5 38.6-32.5s38.6 14.6 38.6 32.5zM721.4 82.2h51.7v21.7h-51.7z" fill="#0B0100" p-id="1703"></path><path d="M747.3 107.5h77.5c0-17.9-17.3-32.5-38.7-32.5s-38.8 14.6-38.8 32.5z" fill="#0B0100" p-id="1704"></path><path d="M741.6 269.9h-453V122.6c0-54.1 43.4-98 97-98h259.1c53.5 0 97 43.9 97 98l-0.1 147.3z" fill="#B3B3B3" p-id="1705"></path><path d="M299.8 257.3v-148c10.7 0 19.4 8.7 19.4 19.4V238c0 10.7-8.7 19.3-19.4 19.3zM735.9 259.1v-148c-10.7 0-19.4 8.7-19.4 19.4v109.3c0 10.7 8.7 19.3 19.4 19.3zM696.9 89.4H332.7v-0.7c0-21.5 17.5-39 39-39h286.2c21.5 0 39 17.5 39 39v0.7z" fill="#FFFFFF" p-id="1706"></path><path d="M696.9 90.7H333.1v-0.5c0-15.1 12.2-27.3 27.3-27.3h309.2c15.1 0 27.3 12.2 27.3 27.3v0.5z" p-id="1707"></path><path d="M342.7 960.1h-4.9c-11.5 0-20.8-9.4-20.8-20.8v-171c0-11.5 9.4-20.8 20.8-20.8h4.9c11.5 0 20.8 9.4 20.8 20.8v171c0 11.4-9.3 20.8-20.8 20.8zM687 960.1h4.9c11.5 0 20.8-9.4 20.8-20.8v-171c0-11.5-9.4-20.8-20.8-20.8H687c-11.5 0-20.8 9.4-20.8 20.8v171c-0.1 11.4 9.3 20.8 20.8 20.8z" fill="#EBF5EA" p-id="1708"></path><path d="M701.1 844.7v-5.6c0-11.5-9.4-20.8-20.8-20.8H349.4c-11.5 0-20.8 9.4-20.8 20.8v5.6c0 11.5 9.4 20.8 20.8 20.8h330.8c11.5 0.1 20.9-9.3 20.9-20.8z" fill="#EBF5EA" p-id="1709"></path><path d="M317 940.4h46.6v47.2H317zM666 940.4h46.6v47.2H666z" fill="#1D140D" p-id="1710"></path></svg>