<?xml version="1.0" encoding="utf-8"?>
<!-- Generator: Adobe Illustrator 23.0.0, SVG Export Plug-In . SVG Version: 6.00 Build 0)  -->
<svg version="1.1" id="图层_1" xmlns="http://www.w3.org/2000/svg" xmlns:xlink="http://www.w3.org/1999/xlink" x="0px" y="0px"
	 viewBox="0 0 1024 1024" style="enable-background:new 0 0 1024 1024;" xml:space="preserve">
<style type="text/css">
	.st0{display:none;}
	.st1{display:inline;fill:#0B0100;}
	.st2{display:inline;fill:#B3B3B3;}
	.st3{display:inline;}
	.st4{fill:#999999;stroke:#B3B3B3;stroke-width:5.3505;stroke-miterlimit:10;}
	.st5{fill:#5CDFFF;}
	.st6{fill:none;stroke:#B3B3B3;stroke-width:2.6753;stroke-miterlimit:10;}
	.st7{fill:#5CDFFF;stroke:#B3B3B3;stroke-width:2.6753;stroke-miterlimit:10;}
	.st8{fill:#0EAA3E;}
	.st9{fill:#0084FF;}
	.st10{fill:#0B0100;}
	.st11{fill:#FFFFFF;}
	.st12{fill:none;stroke:#B3B3B3;stroke-width:1.8605;stroke-miterlimit:10;}
	.st13{display:inline;fill:#E6E6E6;}
	.st14{font-family:'SourceHanSansCN-Medium-GBpc-EUC-H';}
	.st15{font-size:252.7186px;}
	.st16{fill:#FF0000;}
	.st17{fill:none;stroke:#B3B3B3;stroke-width:1.8607;stroke-miterlimit:10;}
	.st18{font-size:252.7474px;}
	.st19{fill:#B3B3B3;}
	.st20{fill:#EBF5EA;}
	.st21{fill:#1D140D;}
	.st22{display:none;fill:#E6E6E6;enable-background:new    ;}
</style>
<g id="洒水车_7_" class="st0">
	<path class="st1" d="M725.7,830.3H297.5c-20,0-36.2-18.9-36.2-42.2v-62.8c0-23.3,16.2-42.2,36.2-42.2h428.1
		c20,0,36.2,18.9,36.2,42.2v62.8C761.9,811.4,745.7,830.3,725.7,830.3z"/>
	<rect id="联接_21_" x="392.4" y="244.7" class="st2" width="238.4" height="12.3"/>
	<g id="水花_14_" class="st3">
		<polygon class="st4" points="335.4,498.4 257.5,529.2 257.5,395.5 335.4,426.4 		"/>
		<g>
			<path class="st5" d="M213,426.4c0,0-33.4-61.7,11.1-102.9c0,0,11.1-20.6-22.3-20.6s-55.7,41.1-44.5,72S201.8,426.4,213,426.4z"/>
			<path class="st6" d="M213,426.4c0,0-33.4-61.7,11.1-102.9c0,0,11.1-20.6-22.3-20.6s-55.7,41.1-44.5,72S201.8,426.4,213,426.4z"/>
		</g>
		<g>
			<path class="st5" d="M227.7,492.3c0,0-58.3,43.1-36.5,97.7c0,0,0.8,23-29.5,10.1s-31.9-58.9-7.8-82.6
				C177.9,493.7,217.6,488,227.7,492.3z"/>
			<path class="st6" d="M227.7,492.3c0,0-58.3,43.1-36.5,97.7c0,0,0.8,23-29.5,10.1s-31.9-58.9-7.8-82.6
				C177.9,493.7,217.6,488,227.7,492.3z"/>
		</g>
		<path class="st7" d="M207.4,462.4c0,0-66.8-41.1-89.1-82.3s-22.3-72-55.7-61.7s-44.5,51.4-22.3,82.3S73.8,452.1,207.4,462.4z"/>
	</g>
	<g id="水花_13_" class="st3">
		<polygon class="st4" points="684.4,498.4 762.3,529.2 762.3,395.5 684.4,426.4 		"/>
		<g>
			<path class="st5" d="M806.8,426.4c0,0,33.4-61.7-11.1-102.9c0,0-11.1-20.6,22.3-20.6s55.7,41.1,44.5,72
				C851.4,405.8,818,426.4,806.8,426.4z"/>
			<path class="st6" d="M806.8,426.4c0,0,33.4-61.7-11.1-102.9c0,0-11.1-20.6,22.3-20.6s55.7,41.1,44.5,72
				C851.4,405.8,818,426.4,806.8,426.4z"/>
		</g>
		<g>
			<path class="st5" d="M792.1,492.3c0,0,58.3,43.1,36.5,97.7c0,0-0.8,23,29.5,10.1s31.9-58.9,7.8-82.6
				C841.8,493.7,802.2,488,792.1,492.3z"/>
			<path class="st6" d="M792.1,492.3c0,0,58.3,43.1,36.5,97.7c0,0-0.8,23,29.5,10.1s31.9-58.9,7.8-82.6
				C841.8,493.7,802.2,488,792.1,492.3z"/>
		</g>
		<path class="st7" d="M812.4,462.4c0,0,66.8-41.1,89.1-82.3s22.3-72,55.7-61.7s44.5,51.4,22.3,82.3
			C957.1,431.5,946,452.1,812.4,462.4z"/>
	</g>
	<g class="st3">
		<path class="st8" d="M762.7,935.8H257.1c-3.9,0-7-3.2-7-7v-2.2c0-3.9,3.2-7,7-7h505.6c3.9,0,7,3.2,7,7v2.2
			C769.7,932.6,766.6,935.8,762.7,935.8z"/>
		<path class="st8" d="M641,943.6H378.7c-9.8,0-17.8-8-17.8-17.8v-13.9h297.9v13.9C658.9,935.6,650.8,943.6,641,943.6z"/>
		<g>
			<g>
				<polygon class="st8" points="293.9,956.1 261.4,956.1 273.6,935.8 281.7,935.8 				"/>
				<g>
					<g>
						<g>
							<path class="st9" d="M278.4,1024c3.2,0,6.3-2,8.6-5.6c2.3-3.6,3.5-8.5,3.5-13.6c0-6.4-3.3-18.7-10-36.8
								c-0.4-1.2-1.2-1.9-2.1-1.9s-1.7,0.7-2.1,1.9c-6.7,18.1-10,30.3-10,36.8c0,5.1,1.3,10,3.5,13.6
								C272.1,1022,275.1,1024,278.4,1024L278.4,1024z"/>
						</g>
					</g>
					<g>
						<g>
							<path class="st9" d="M333.7,1019.1c2.8-1.6,4.4-5,4.5-9.2c0.1-4.3-1.3-9.1-3.9-13.5c-3.3-5.5-12.4-14.4-27.4-26.5
								c-1-0.8-2-1-2.8-0.6c-0.7,0.4-1.1,1.5-0.8,2.7c3.5,19,6.8,31.2,10.1,36.7c2.6,4.4,6.2,7.9,10,9.9
								C327.2,1020.6,330.9,1020.8,333.7,1019.1L333.7,1019.1z"/>
						</g>
					</g>
					<g>
						<g>
							<path class="st9" d="M219.2,1019.1c2.8,1.6,6.5,1.5,10.2-0.5c3.8-1.9,7.4-5.5,10-9.9c3.3-5.5,6.7-17.8,10.1-36.7
								c0.2-1.2-0.1-2.3-0.8-2.7c-0.7-0.4-1.8-0.2-2.8,0.6c-15,12.1-24.1,21-27.4,26.5c-2.6,4.4-4,9.3-3.9,13.5
								C214.8,1014.2,216.4,1017.5,219.2,1019.1L219.2,1019.1z"/>
						</g>
					</g>
				</g>
			</g>
			<g>
				<polygon class="st8" points="760.8,955.9 728.3,955.9 740.5,935.6 748.6,935.6 				"/>
				<g>
					<g>
						<g>
							<path class="st9" d="M745.3,1023.9c3.2,0,6.3-2,8.6-5.6s3.5-8.5,3.5-13.6c0-6.4-3.3-18.7-10-36.8c-0.4-1.2-1.2-1.9-2.1-1.9
								c-0.9,0-1.7,0.7-2.1,1.9c-6.7,18.1-10,30.3-10,36.8c0,5.1,1.3,10,3.5,13.6C739,1021.8,742.1,1023.9,745.3,1023.9
								L745.3,1023.9z"/>
						</g>
					</g>
					<g>
						<g>
							<path class="st9" d="M800.6,1019c2.8-1.6,4.4-5,4.5-9.2c0.1-4.3-1.3-9.1-3.9-13.5c-3.3-5.5-12.4-14.4-27.4-26.5
								c-1-0.8-2-1-2.8-0.6c-0.7,0.4-1.1,1.5-0.8,2.7c3.5,19,6.8,31.2,10.1,36.7c2.6,4.4,6.2,7.9,10,9.9
								C794.1,1020.5,797.8,1020.6,800.6,1019L800.6,1019z"/>
						</g>
					</g>
					<g>
						<g>
							<path class="st9" d="M686.1,1019c2.8,1.6,6.5,1.5,10.2-0.5c3.8-1.9,7.4-5.5,10-9.9c3.3-5.5,6.7-17.8,10.1-36.7
								c0.2-1.2-0.1-2.3-0.8-2.7s-1.8-0.2-2.8,0.6c-15,12.1-24.1,21-27.4,26.5c-2.6,4.4-4,9.3-3.9,13.5
								C681.7,1014,683.3,1017.4,686.1,1019L686.1,1019z"/>
						</g>
					</g>
				</g>
			</g>
		</g>
	</g>
	<g class="st3">
		<path class="st8" d="M702,914.1H321.2c-19.9,0-36.1-16.2-36.1-36.1V251.9H738V878C738.1,898,721.9,914.1,702,914.1z"/>
	</g>
	<g id="车头_21_" class="st3">
		<path class="st10" d="M761.7,120.4v73.3c0,6.9-5.3,12.4-11.8,12.4H277.2c-6.5,0-11.8-5.6-11.8-12.4v-73.3c0-2.3,0.6-4.5,1.6-6.3
			c2.1-3.7,5.8-6.1,10.2-6.1h472.7C756.4,107.9,761.7,113.5,761.7,120.4z"/>
		<g>
			<rect x="253.2" y="57.7" class="st10" width="51.5" height="21.7"/>
			<path class="st10" d="M278.9,83h-77.2c0-17.9,17.3-32.5,38.6-32.5S278.9,65,278.9,83z"/>
		</g>
		<g>
			<rect x="718.3" y="57.7" class="st10" width="51.6" height="21.7"/>
			<path class="st10" d="M744,83h77.5c0-17.9-17.3-32.5-38.7-32.5S744,65,744,83z"/>
		</g>
		<g>
			<path class="st8" d="M738.4,245.3h-453V98.1c0-54.1,43.4-98,96.9-98h259c53.5,0,96.9,43.9,96.9,98v147.2L738.4,245.3L738.4,245.3
				z"/>
			<path class="st8" d="M736.4,245.3h-449V98.1c0-54.1,43-98,96.1-98h256.8c53.1,0,96.1,43.9,96.1,98V245.3z"/>
		</g>
		<path class="st11" d="M296.6,232.8L296.6,232.8v-148l0,0c10.7,0,19.4,8.7,19.4,19.4v109.3C316,224.1,307.3,232.8,296.6,232.8z"/>
		<path class="st11" d="M732.6,234.6L732.6,234.6v-148l0,0c-10.7,0-19.4,8.7-19.4,19.4v109.3C713.2,225.9,721.9,234.6,732.6,234.6z"
			/>
		<path class="st11" d="M693.7,64.9H329.5v-0.7c0-21.5,17.5-39,39-39h286.2c21.5,0,39,17.5,39,39V64.9z"/>
		<path d="M693.7,66.2H329.9v-0.5c0-15.1,12.2-27.3,27.3-27.3h309.2c15.1,0,27.3,12.2,27.3,27.3V66.2z"/>
		<path class="st12" d="M597.4,245.4H425.8c-53.2,0-96.3-43.1-96.3-96.3V66.7h364.1v82.4C693.7,202.3,650.6,245.4,597.4,245.4z"/>
	</g>
	<text transform="matrix(1.0824 0 0 1 374.8271 617.7666)" class="st13 st14 st15">洒</text>
</g>
<g id="清扫车" class="st0">
	<path class="st1" d="M725.9,879.3H297.7c-20,0-36.3-18.9-36.3-42.2v-62.8c0-23.3,16.2-42.2,36.3-42.2h428.2
		c20,0,36.3,18.9,36.3,42.2v62.8C762.2,860.4,745.9,879.3,725.9,879.3z"/>
	<rect id="联接_1_" x="392.6" y="293.7" class="st2" width="238.4" height="12.3"/>
	<g class="st3">
		<g>
			<polygon class="st16" points="287.4,542.6 111.2,553.6 111.2,520.5 287.4,531.6 			"/>
			<polygon class="st16" points="289.3,525.3 131.2,446.7 147.7,418.1 294.9,515.8 			"/>
			<polygon class="st16" points="294.9,558.3 147.7,656 131.2,627.4 289.3,548.8 			"/>
		</g>
		<g>
			<polygon class="st16" points="736.3,542.6 912.5,553.6 912.5,520.5 736.3,531.6 			"/>
			<polygon class="st16" points="734.3,525.3 892.4,446.7 875.9,418.1 728.8,515.8 			"/>
			<polygon class="st16" points="728.8,558.3 875.9,656 892.4,627.4 734.3,548.8 			"/>
		</g>
	</g>
	<g class="st3">
		<path class="st8" d="M702.2,963.2H321.4c-19.9,0-36.1-16.2-36.1-36.1V300.9h453v626.2C738.3,947,722.2,963.2,702.2,963.2z"/>
	</g>
	<g id="车头_1_" class="st3">
		<path class="st10" d="M761.9,169.3v73.3c0,6.9-5.3,12.4-11.8,12.4H277.4c-6.5,0-11.8-5.6-11.8-12.4v-73.3c0-2.3,0.6-4.5,1.6-6.3
			c2.1-3.7,5.8-6.1,10.2-6.1h472.7C756.6,156.9,761.9,162.5,761.9,169.3z"/>
		<g>
			<rect x="253.4" y="106.7" class="st10" width="51.5" height="21.7"/>
			<path class="st10" d="M279.1,131.9h-77.2c0-17.9,17.3-32.5,38.6-32.5S279.1,114,279.1,131.9z"/>
		</g>
		<g>
			<rect x="718.4" y="106.6" class="st10" width="51.7" height="21.7"/>
			<path class="st10" d="M744.3,131.9h77.5c0-17.9-17.3-32.5-38.7-32.5S744.3,114,744.3,131.9z"/>
		</g>
		<g>
			<path class="st8" d="M738.6,294.3h-453V147c0-54.1,43.4-98,97-98h259.1c53.5,0,97,43.9,97,98L738.6,294.3L738.6,294.3z"/>
			<path class="st8" d="M736.6,294.3h-449V147c0-54.1,43-98,96.1-98h256.8c53.1,0,96.1,43.9,96.1,98V294.3z"/>
		</g>
		<path class="st11" d="M296.8,281.8L296.8,281.8v-148l0,0c10.7,0,19.4,8.7,19.4,19.4v109.3C316.2,273.1,307.5,281.8,296.8,281.8z"
			/>
		<path class="st11" d="M732.9,283.6L732.9,283.6v-148l0,0c-10.7,0-19.4,8.7-19.4,19.4v109.3C713.5,274.9,722.2,283.6,732.9,283.6z"
			/>
		<path class="st11" d="M693.9,113.9H329.7v-0.7c0-21.5,17.5-39,39-39h286.2c21.5,0,39,17.5,39,39V113.9z"/>
		<path d="M693.9,115.1H330.1v-0.5c0-15.1,12.2-27.3,27.3-27.3h309.2c15.1,0,27.3,12.2,27.3,27.3L693.9,115.1L693.9,115.1z"/>
		<path class="st17" d="M597.6,294.4H426.1c-53.2,0-96.3-43.1-96.3-96.3v-82.4H694v82.4C693.9,251.3,650.8,294.4,597.6,294.4z"/>
	</g>
	<text transform="matrix(1.0824 0 0 1 375.0361 666.7793)" class="st13 st14 st18">扫</text>
</g>
<g id="垃圾车">
	<path class="st10" d="M725.8,854.8H297.6c-20,0-36.3-18.9-36.3-42.2v-62.8c0-23.3,16.2-42.2,36.3-42.2h428.2
		c20,0,36.3,18.9,36.3,42.2v62.8C762,836,745.8,854.8,725.8,854.8z"/>
	<rect id="联接_2_" x="392.5" y="269.3" class="st19" width="238.4" height="12.3"/>
	<g>
		<path class="st8" d="M702,938.7H321.3c-19.9,0-36.1-16.2-36.1-36.1V276.4h453v626.2C738.1,922.6,722,938.7,702,938.7z"/>
	</g>
	<g id="车头_2_">
		<path class="st10" d="M761.8,144.9v73.3c0,6.9-5.3,12.4-11.8,12.4H277.3c-6.5,0-11.8-5.6-11.8-12.4v-73.3c0-2.3,0.6-4.5,1.6-6.3
			c2.1-3.7,5.8-6.1,10.2-6.1H750C756.5,132.5,761.8,138,761.8,144.9z"/>
		<g>
			<rect x="253.3" y="82.2" class="st10" width="51.5" height="21.7"/>
			<path class="st10" d="M279,107.5h-77.2c0-17.9,17.3-32.5,38.6-32.5S279,89.6,279,107.5z"/>
		</g>
		<g>
			<rect x="718.3" y="82.2" class="st10" width="51.7" height="21.7"/>
			<path class="st10" d="M744.1,107.5h77.5c0-17.9-17.3-32.5-38.7-32.5S744.1,89.6,744.1,107.5z"/>
		</g>
		<g>
			<path class="st8" d="M738.4,269.9h-453V122.6c0-54.1,43.4-98,97-98h259.1c53.5,0,97,43.9,97,98L738.4,269.9L738.4,269.9z"/>
			<path class="st8" d="M736.5,269.9h-449V122.6c0-54.1,43-98,96.1-98h256.8c53.1,0,96.1,43.9,96.1,98L736.5,269.9L736.5,269.9z"/>
		</g>
		<path class="st11" d="M296.6,257.3L296.6,257.3v-148l0,0c10.7,0,19.4,8.7,19.4,19.4V238C316.1,248.7,307.4,257.3,296.6,257.3z"/>
		<path class="st11" d="M732.8,259.1L732.8,259.1v-148l0,0c-10.7,0-19.4,8.7-19.4,19.4v109.3C713.3,250.5,722,259.1,732.8,259.1z"/>
		<path class="st11" d="M693.8,89.4H329.6v-0.7c0-21.5,17.5-39,39-39h286.2c21.5,0,39,17.5,39,39V89.4z"/>
		<path d="M693.8,90.7H330v-0.5c0-15.1,12.2-27.3,27.3-27.3h309.2c15.1,0,27.3,12.2,27.3,27.3L693.8,90.7L693.8,90.7z"/>
		<path class="st17" d="M597.4,270H426c-53.2,0-96.3-43.1-96.3-96.3V91.2h364.2v82.4C693.8,226.9,650.6,270,597.4,270z"/>
	</g>
	<g>
		<path class="st20" d="M339.6,960.1h-4.9c-11.5,0-20.8-9.4-20.8-20.8v-171c0-11.5,9.4-20.8,20.8-20.8h4.9
			c11.5,0,20.8,9.4,20.8,20.8v171C360.4,950.7,351.1,960.1,339.6,960.1z"/>
		<path class="st20" d="M683.8,960.1h4.9c11.5,0,20.8-9.4,20.8-20.8v-171c0-11.5-9.4-20.8-20.8-20.8h-4.9
			c-11.5,0-20.8,9.4-20.8,20.8v171C662.9,950.7,672.3,960.1,683.8,960.1z"/>
		<path class="st20" d="M697.9,844.7v-5.6c0-11.5-9.4-20.8-20.8-20.8H346.3c-11.5,0-20.8,9.4-20.8,20.8v5.6
			c0,11.5,9.4,20.8,20.8,20.8H677C688.5,865.6,697.9,856.2,697.9,844.7z"/>
		<rect x="313.9" y="940.4" class="st21" width="46.6" height="47.2"/>
		<rect x="662.8" y="940.4" class="st21" width="46.6" height="47.2"/>
	</g>
	<text transform="matrix(1.0824 0 0 1 374.8969 642.3379)" class="st22 st14 st18">垃</text>
</g>
</svg>
