<?xml version="1.0" encoding="utf-8"?>
<!-- Generator: Adobe Illustrator 23.0.0, SVG Export Plug-In . SVG Version: 6.00 Build 0)  -->
<svg version="1.1" id="图层_1" xmlns="http://www.w3.org/2000/svg" xmlns:xlink="http://www.w3.org/1999/xlink" x="0px" y="0px"
	 viewBox="0 0 1024 1024" style="enable-background:new 0 0 1024 1024;" xml:space="preserve">
<style type="text/css">
	.st0{display:none;}
	.st1{display:inline;fill:#0B0100;}
	.st2{display:inline;fill:#B3B3B3;}
	.st3{display:inline;}
	.st4{fill:#B3B3B3;}
	.st5{fill:#0B0100;}
	.st6{fill:#FFFFFF;}
	.st7{fill:none;stroke:#B3B3B3;stroke-width:1.8605;stroke-miterlimit:10;}
	.st8{display:inline;fill:#E6E6E6;}
	.st9{font-family:'SourceHanSansCN-Medium-GBpc-EUC-H';}
	.st10{font-size:252.7186px;}
	.st11{fill:none;stroke:#B3B3B3;stroke-width:1.8607;stroke-miterlimit:10;}
	.st12{font-size:252.7474px;}
	.st13{fill:#EBF5EA;}
	.st14{fill:#1D140D;}
	.st15{display:none;fill:#E6E6E6;enable-background:new    ;}
</style>
<g id="离线">
	<g id="洒水车_4_" class="st0">
		<path class="st1" d="M731.6,830.3H303.4c-20,0-36.2-18.9-36.2-42.2v-62.8c0-23.3,16.2-42.2,36.2-42.2h428.1
			c20,0,36.2,18.9,36.2,42.2v62.8C767.8,811.4,751.6,830.3,731.6,830.3z"/>
		<rect id="联接_14_" x="398.3" y="244.7" class="st2" width="238.4" height="12.3"/>
		<g class="st3">
			<path class="st4" d="M768.6,935.8H263c-3.9,0-7-3.2-7-7v-2.2c0-3.9,3.2-7,7-7h505.6c3.9,0,7,3.2,7,7v2.2
				C775.6,932.6,772.5,935.8,768.6,935.8z"/>
			<path class="st4" d="M646.9,943.6H384.6c-9.8,0-17.8-8-17.8-17.8v-13.9h297.9v13.9C664.8,935.6,656.7,943.6,646.9,943.6z"/>
			<g>
				<g>
					<polygon class="st4" points="299.8,956.1 267.3,956.1 279.5,935.8 287.6,935.8 					"/>
					<g>
						<g>
							<g>
								<path class="st4" d="M284.3,1024c3.2,0,6.3-2,8.6-5.6c2.3-3.6,3.5-8.5,3.5-13.6c0-6.4-3.3-18.7-10-36.8
									c-0.4-1.2-1.2-1.9-2.1-1.9s-1.7,0.7-2.1,1.9c-6.7,18.1-10,30.3-10,36.8c0,5.1,1.3,10,3.5,13.6C278,1022,281,1024,284.3,1024
									L284.3,1024z"/>
							</g>
						</g>
						<g>
							<g>
								<path class="st4" d="M339.6,1019.1c2.8-1.6,4.4-5,4.5-9.2c0.1-4.3-1.3-9.1-3.9-13.5c-3.3-5.5-12.4-14.4-27.4-26.5
									c-1-0.8-2-1-2.8-0.6c-0.7,0.4-1.1,1.5-0.8,2.7c3.5,19,6.8,31.2,10.1,36.7c2.6,4.4,6.2,7.9,10,9.9
									C333.1,1020.6,336.8,1020.8,339.6,1019.1L339.6,1019.1z"/>
							</g>
						</g>
						<g>
							<g>
								<path class="st4" d="M225.1,1019.1c2.8,1.6,6.5,1.5,10.2-0.5c3.8-1.9,7.4-5.5,10-9.9c3.3-5.5,6.7-17.8,10.1-36.7
									c0.2-1.2-0.1-2.3-0.8-2.7c-0.7-0.4-1.8-0.2-2.8,0.6c-15,12.1-24.1,21-27.4,26.5c-2.6,4.4-4,9.3-3.9,13.5
									C220.7,1014.2,222.3,1017.5,225.1,1019.1L225.1,1019.1z"/>
							</g>
						</g>
					</g>
				</g>
				<g>
					<polygon class="st4" points="766.7,955.9 734.2,955.9 746.4,935.6 754.5,935.6 					"/>
					<g>
						<g>
							<g>
								<path class="st4" d="M751.2,1023.9c3.2,0,6.3-2,8.6-5.6s3.5-8.5,3.5-13.6c0-6.4-3.3-18.7-10-36.8c-0.4-1.2-1.2-1.9-2.1-1.9
									c-0.9,0-1.7,0.7-2.1,1.9c-6.7,18.1-10,30.3-10,36.8c0,5.1,1.3,10,3.5,13.6C744.9,1021.8,748,1023.9,751.2,1023.9
									L751.2,1023.9z"/>
							</g>
						</g>
						<g>
							<g>
								<path class="st4" d="M806.5,1019c2.8-1.6,4.4-5,4.5-9.2c0.1-4.3-1.3-9.1-3.9-13.5c-3.3-5.5-12.4-14.4-27.4-26.5
									c-1-0.8-2-1-2.8-0.6c-0.7,0.4-1.1,1.5-0.8,2.7c3.5,19,6.8,31.2,10.1,36.7c2.6,4.4,6.2,7.9,10,9.9
									C800,1020.5,803.7,1020.6,806.5,1019L806.5,1019z"/>
							</g>
						</g>
						<g>
							<g>
								<path class="st4" d="M692,1019c2.8,1.6,6.5,1.5,10.2-0.5c3.8-1.9,7.4-5.5,10-9.9c3.3-5.5,6.7-17.8,10.1-36.7
									c0.2-1.2-0.1-2.3-0.8-2.7s-1.8-0.2-2.8,0.6c-15,12.1-24.1,21-27.4,26.5c-2.6,4.4-4,9.3-3.9,13.5
									C687.6,1014,689.2,1017.4,692,1019L692,1019z"/>
							</g>
						</g>
					</g>
				</g>
			</g>
		</g>
		<g class="st3">
			<path class="st4" d="M707.9,914.1H327.1c-19.9,0-36.1-16.2-36.1-36.1V251.9h452.9V878C744,898,727.8,914.1,707.9,914.1z"/>
		</g>
		<g id="车头_14_" class="st3">
			<path class="st5" d="M767.6,120.4v73.3c0,6.9-5.3,12.4-11.8,12.4H283.1c-6.5,0-11.8-5.6-11.8-12.4v-73.3c0-2.3,0.6-4.5,1.6-6.3
				c2.1-3.7,5.8-6.1,10.2-6.1h472.7C762.3,107.9,767.6,113.5,767.6,120.4z"/>
			<g>
				<rect x="259.1" y="57.7" class="st5" width="51.5" height="21.7"/>
				<path class="st5" d="M284.8,83h-77.2c0-17.9,17.3-32.5,38.6-32.5S284.8,65,284.8,83z"/>
			</g>
			<g>
				<rect x="724.2" y="57.7" class="st5" width="51.6" height="21.7"/>
				<path class="st5" d="M749.9,83h77.5c0-17.9-17.3-32.5-38.7-32.5S749.9,65,749.9,83z"/>
			</g>
			<g>
				<path class="st4" d="M744.3,245.3h-453V98.1c0-54.1,43.4-98,96.9-98h259c53.5,0,96.9,43.9,96.9,98v147.2L744.3,245.3
					L744.3,245.3z"/>
			</g>
			<path class="st6" d="M302.5,232.8L302.5,232.8v-148l0,0c10.7,0,19.4,8.7,19.4,19.4v109.3C321.9,224.1,313.2,232.8,302.5,232.8z"
				/>
			<path class="st6" d="M738.5,234.6L738.5,234.6v-148l0,0c-10.7,0-19.4,8.7-19.4,19.4v109.3C719.1,225.9,727.8,234.6,738.5,234.6z"
				/>
			<path class="st6" d="M699.6,64.9H335.4v-0.7c0-21.5,17.5-39,39-39h286.2c21.5,0,39,17.5,39,39V64.9z"/>
			<path d="M699.6,66.2H335.8v-0.5c0-15.1,12.2-27.3,27.3-27.3h309.2c15.1,0,27.3,12.2,27.3,27.3V66.2z"/>
			<path class="st7" d="M603.3,245.4H431.7c-53.2,0-96.3-43.1-96.3-96.3V66.7h364.1v82.4C699.6,202.3,656.5,245.4,603.3,245.4z"/>
		</g>
		<text transform="matrix(1.0824 0 0 1 380.7271 617.7666)" class="st8 st9 st10">洒</text>
	</g>
	<g id="清扫车_4_" class="st0">
		<path class="st1" d="M725.8,879.3H297.6c-20,0-36.3-18.9-36.3-42.2v-62.8c0-23.3,16.2-42.2,36.3-42.2h428.2
			c20,0,36.3,18.9,36.3,42.2v62.8C762.1,860.4,745.8,879.3,725.8,879.3z"/>
		<rect id="联接_13_" x="392.5" y="293.7" class="st2" width="238.4" height="12.3"/>
		<g class="st3">
			<g>
				<polygon class="st4" points="287.3,542.6 111.1,553.6 111.1,520.5 287.3,531.6 				"/>
				<polygon class="st4" points="289.2,525.3 131.1,446.7 147.6,418.1 294.8,515.8 				"/>
				<polygon class="st4" points="294.8,558.3 147.6,656 131.1,627.4 289.2,548.8 				"/>
			</g>
			<g>
				<polygon class="st4" points="736.2,542.6 912.4,553.6 912.4,520.5 736.2,531.6 				"/>
				<polygon class="st4" points="734.2,525.3 892.3,446.7 875.8,418.1 728.7,515.8 				"/>
				<polygon class="st4" points="728.7,558.3 875.8,656 892.3,627.4 734.2,548.8 				"/>
			</g>
		</g>
		<g class="st3">
			<path class="st4" d="M702.1,963.2H321.3c-19.9,0-36.1-16.2-36.1-36.1V300.9h453v626.2C738.2,947,722.1,963.2,702.1,963.2z"/>
		</g>
		<g id="车头_13_" class="st3">
			<path class="st5" d="M761.8,169.3v73.3c0,6.9-5.3,12.4-11.8,12.4H277.3c-6.5,0-11.8-5.6-11.8-12.4v-73.3c0-2.3,0.6-4.5,1.6-6.3
				c2.1-3.7,5.8-6.1,10.2-6.1H750C756.5,156.9,761.8,162.5,761.8,169.3z"/>
			<g>
				<rect x="253.3" y="106.7" class="st5" width="51.5" height="21.7"/>
				<path class="st5" d="M279,131.9h-77.2c0-17.9,17.3-32.5,38.6-32.5S279,114,279,131.9z"/>
			</g>
			<g>
				<rect x="718.3" y="106.6" class="st5" width="51.7" height="21.7"/>
				<path class="st5" d="M744.2,131.9h77.5c0-17.9-17.3-32.5-38.7-32.5S744.2,114,744.2,131.9z"/>
			</g>
			<g>
				<path class="st4" d="M738.5,294.3h-453V147c0-54.1,43.4-98,97-98h259.1c53.5,0,97,43.9,97,98L738.5,294.3L738.5,294.3z"/>
			</g>
			<path class="st6" d="M296.7,281.8L296.7,281.8v-148l0,0c10.7,0,19.4,8.7,19.4,19.4v109.3C316.1,273.1,307.4,281.8,296.7,281.8z"
				/>
			<path class="st6" d="M732.8,283.6L732.8,283.6v-148l0,0c-10.7,0-19.4,8.7-19.4,19.4v109.3C713.4,274.9,722.1,283.6,732.8,283.6z"
				/>
			<path class="st6" d="M693.8,113.9H329.6v-0.7c0-21.5,17.5-39,39-39h286.2c21.5,0,39,17.5,39,39V113.9z"/>
			<path d="M693.8,115.1H330v-0.5c0-15.1,12.2-27.3,27.3-27.3h309.2c15.1,0,27.3,12.2,27.3,27.3L693.8,115.1L693.8,115.1z"/>
			<path class="st11" d="M597.5,294.4H426c-53.2,0-96.3-43.1-96.3-96.3v-82.4h364.2v82.4C693.8,251.3,650.7,294.4,597.5,294.4z"/>
		</g>
		<text transform="matrix(1.0824 0 0 1 374.9371 666.7793)" class="st8 st9 st12">扫</text>
	</g>
	<g id="垃圾车_4_">
		<path class="st5" d="M725.8,854.8H297.7c-20,0-36.3-18.9-36.3-42.2v-62.8c0-23.3,16.2-42.2,36.3-42.2h428.2
			c20,0,36.3,18.9,36.3,42.2v62.8C762.1,836,745.8,854.8,725.8,854.8z"/>
		<rect id="联接_12_" x="392.5" y="269.3" class="st4" width="238.4" height="12.3"/>
		<g>
			<path class="st4" d="M702.1,938.7H321.3c-19.9,0-36.1-16.2-36.1-36.1V276.4h453v626.2C738.2,922.6,722.1,938.7,702.1,938.7z"/>
		</g>
		<g id="车头_12_">
			<path class="st5" d="M761.8,144.9v73.3c0,6.9-5.3,12.4-11.8,12.4H277.3c-6.5,0-11.8-5.6-11.8-12.4v-73.3c0-2.3,0.6-4.5,1.6-6.3
				c2.1-3.7,5.8-6.1,10.2-6.1H750C756.6,132.5,761.8,138,761.8,144.9z"/>
			<g>
				<rect x="253.3" y="82.2" class="st5" width="51.5" height="21.7"/>
				<path class="st5" d="M279,107.5h-77.2c0-17.9,17.3-32.5,38.6-32.5S279,89.6,279,107.5z"/>
			</g>
			<g>
				<rect x="718.3" y="82.2" class="st5" width="51.7" height="21.7"/>
				<path class="st5" d="M744.2,107.5h77.5c0-17.9-17.3-32.5-38.7-32.5S744.2,89.6,744.2,107.5z"/>
			</g>
			<g>
				<path class="st4" d="M738.5,269.9h-453V122.6c0-54.1,43.4-98,97-98h259.1c53.5,0,97,43.9,97,98L738.5,269.9L738.5,269.9z"/>
			</g>
			<path class="st6" d="M296.7,257.3L296.7,257.3v-148l0,0c10.7,0,19.4,8.7,19.4,19.4V238C316.1,248.7,307.4,257.3,296.7,257.3z"/>
			<path class="st6" d="M732.8,259.1L732.8,259.1v-148l0,0c-10.7,0-19.4,8.7-19.4,19.4v109.3C713.4,250.5,722.1,259.1,732.8,259.1z"
				/>
			<path class="st6" d="M693.8,89.4H329.6v-0.7c0-21.5,17.5-39,39-39h286.2c21.5,0,39,17.5,39,39V89.4z"/>
			<path d="M693.8,90.7H330v-0.5c0-15.1,12.2-27.3,27.3-27.3h309.2c15.1,0,27.3,12.2,27.3,27.3L693.8,90.7L693.8,90.7z"/>
			<path class="st11" d="M597.5,270H426c-53.2,0-96.3-43.1-96.3-96.3V91.2h364.2v82.4C693.8,226.9,650.7,270,597.5,270z"/>
		</g>
		<g>
			<path class="st13" d="M339.6,960.1h-4.9c-11.5,0-20.8-9.4-20.8-20.8v-171c0-11.5,9.4-20.8,20.8-20.8h4.9
				c11.5,0,20.8,9.4,20.8,20.8v171C360.4,950.7,351.1,960.1,339.6,960.1z"/>
			<path class="st13" d="M683.9,960.1h4.9c11.5,0,20.8-9.4,20.8-20.8v-171c0-11.5-9.4-20.8-20.8-20.8h-4.9
				c-11.5,0-20.8,9.4-20.8,20.8v171C663,950.7,672.4,960.1,683.9,960.1z"/>
			<path class="st13" d="M698,844.7v-5.6c0-11.5-9.4-20.8-20.8-20.8H346.3c-11.5,0-20.8,9.4-20.8,20.8v5.6
				c0,11.5,9.4,20.8,20.8,20.8h330.8C688.6,865.6,698,856.2,698,844.7z"/>
			<rect x="313.9" y="940.4" class="st14" width="46.6" height="47.2"/>
			<rect x="662.9" y="940.4" class="st14" width="46.6" height="47.2"/>
		</g>
		<text transform="matrix(1.0824 0 0 1 374.9478 642.3379)" class="st15 st9 st12">垃</text>
	</g>
</g>
</svg>
