<?xml version="1.0" encoding="utf-8"?>
<!-- Generator: Adobe Illustrator 23.0.0, SVG Export Plug-In . SVG Version: 6.00 Build 0)  -->
<svg version="1.1" id="图层_1" xmlns="http://www.w3.org/2000/svg" xmlns:xlink="http://www.w3.org/1999/xlink" x="0px" y="0px"
	 viewBox="0 0 1024 1024" style="enable-background:new 0 0 1024 1024;" xml:space="preserve">
<style type="text/css">
	.st0{fill:#0B0100;}
	.st1{fill:#B3B3B3;}
	.st2{fill:#5CDFFF;}
	.st3{fill:#FFFFFF;}
	.st4{fill:none;stroke:#B3B3B3;stroke-width:1.8607;stroke-miterlimit:10;}
	.st5{fill:#EBF5EA;}
	.st6{fill:#1D140D;}
</style>
<g id="垃圾车充电">
	<path class="st0" d="M725.8,854.8H297.7c-20,0-36.3-18.9-36.3-42.2v-62.8c0-23.3,16.2-42.2,36.3-42.2h428.2
		c20,0,36.3,18.9,36.3,42.2v62.8C762.1,836,745.8,854.8,725.8,854.8z"/>
	<rect id="联接_9_" x="392.5" y="269.3" class="st1" width="238.4" height="12.3"/>
	<g>
		<path class="st2" d="M702.1,938.7H321.3c-19.9,0-36.1-16.2-36.1-36.1V276.4h453v626.2C738.2,922.6,722.1,938.7,702.1,938.7z"/>
	</g>
	<g id="车头_9_">
		<path class="st0" d="M761.8,144.9v73.3c0,6.9-5.3,12.4-11.8,12.4H277.3c-6.5,0-11.8-5.6-11.8-12.4v-73.3c0-2.3,0.6-4.5,1.6-6.3
			c2.1-3.7,5.8-6.1,10.2-6.1H750C756.6,132.5,761.8,138,761.8,144.9z"/>
		<g>
			<rect x="253.3" y="82.2" class="st0" width="51.5" height="21.7"/>
			<path class="st0" d="M279,107.5h-77.2c0-17.9,17.3-32.5,38.6-32.5S279,89.6,279,107.5z"/>
		</g>
		<g>
			<rect x="718.3" y="82.2" class="st0" width="51.7" height="21.7"/>
			<path class="st0" d="M744.2,107.5h77.5c0-17.9-17.3-32.5-38.7-32.5S744.2,89.6,744.2,107.5z"/>
		</g>
		<g>
			<path class="st2" d="M738.5,269.9h-453V122.6c0-54.1,43.4-98,97-98h259.1c53.5,0,97,43.9,97,98L738.5,269.9L738.5,269.9z"/>
		</g>
		<path class="st3" d="M296.7,257.3L296.7,257.3v-148l0,0c10.7,0,19.4,8.7,19.4,19.4V238C316.1,248.7,307.4,257.3,296.7,257.3z"/>
		<path class="st3" d="M732.8,259.1L732.8,259.1v-148l0,0c-10.7,0-19.4,8.7-19.4,19.4v109.3C713.4,250.5,722.1,259.1,732.8,259.1z"
			/>
		<path class="st3" d="M693.8,89.4H329.6v-0.7c0-21.5,17.5-39,39-39h286.2c21.5,0,39,17.5,39,39V89.4z"/>
		<path d="M693.8,90.7H330v-0.5c0-15.1,12.2-27.3,27.3-27.3h309.2c15.1,0,27.3,12.2,27.3,27.3L693.8,90.7L693.8,90.7z"/>
		<path class="st4" d="M597.5,270H426c-53.2,0-96.3-43.1-96.3-96.3V91.2h364.2v82.4C693.8,226.9,650.7,270,597.5,270z"/>
	</g>
	<g>
		<path class="st5" d="M339.6,960.1h-4.9c-11.5,0-20.8-9.4-20.8-20.8v-171c0-11.5,9.4-20.8,20.8-20.8h4.9c11.5,0,20.8,9.4,20.8,20.8
			v171C360.4,950.7,351.1,960.1,339.6,960.1z"/>
		<path class="st5" d="M683.9,960.1h4.9c11.5,0,20.8-9.4,20.8-20.8v-171c0-11.5-9.4-20.8-20.8-20.8h-4.9c-11.5,0-20.8,9.4-20.8,20.8
			v171C663,950.7,672.4,960.1,683.9,960.1z"/>
		<path class="st5" d="M698,844.7v-5.6c0-11.5-9.4-20.8-20.8-20.8H346.3c-11.5,0-20.8,9.4-20.8,20.8v5.6c0,11.5,9.4,20.8,20.8,20.8
			h330.8C688.6,865.6,698,856.2,698,844.7z"/>
		<rect x="313.9" y="940.4" class="st6" width="46.6" height="47.2"/>
		<rect x="662.9" y="940.4" class="st6" width="46.6" height="47.2"/>
	</g>
</g>
</svg>
