<?xml version="1.0" standalone="no"?><!DOCTYPE svg PUBLIC "-//W3C//DTD SVG 1.1//EN" "http://www.w3.org/Graphics/SVG/1.1/DTD/svg11.dtd"><svg t="1578529573859" class="icon" viewBox="0 0 1024 1024" version="1.1" xmlns="http://www.w3.org/2000/svg" p-id="6186" xmlns:xlink="http://www.w3.org/1999/xlink" width="200" height="200"><defs><style type="text/css"></style></defs><path d="M322.14 493.2l-148.6 9.28v-27.83l148.6 9.27v9.28z m1.6-14.51L190.4 412.4l13.91-24.12 124.15 82.4-4.72 8.01z m4.72 27.83l-124.15 82.4-13.91-24.12 133.34-66.29 4.72 8.01z m0 0" fill="#B3B3B3" p-id="6187"></path><path d="M700.72 493.2l148.6 9.28v-27.83l-148.6 9.27v9.28z m-1.68-14.51l133.34-66.29-13.91-24.12-124.06 82.4 4.63 8.01z m-4.64 27.83l124.06 82.4 13.91-24.12-133.34-66.29-4.63 8.01z m0 0" fill="#B3B3B3" p-id="6188"></path><path d="M691.44 784.86H331.52c-16.81 0-30.43-15.89-30.43-35.47V696.6c0-19.58 13.62-35.47 30.43-35.47h359.84c16.81 0 30.42 15.89 30.42 35.47v52.78c0.09 19.59-13.53 35.48-30.34 35.48z m0 0" fill="#0B0100" p-id="6189"></path><path d="M411.29 292.63h200.39v10.34H411.29zM722.55 873.54H297.56c-3.28 0-5.88-2.69-5.88-5.88v-1.85c0-3.28 2.69-5.88 5.88-5.88h424.98c3.28 0 5.88 2.69 5.88 5.88v1.85c0.01 3.19-2.59 5.88-5.87 5.88z m0 0" fill="#B3B3B3" p-id="6190"></path><path d="M620.25 880.1H399.77c-8.24 0-14.97-6.73-14.97-14.96v-11.68h250.4v11.68c0.1 8.23-6.71 14.96-14.95 14.96zM328.5 890.6h-27.32l10.25-17.07h6.81l10.26 17.07z m0 0M315.46 947.68c2.69 0 5.29-1.68 7.23-4.71 1.93-3.02 2.94-7.15 2.94-11.43 0-5.38-2.77-15.72-8.41-30.93-0.34-1.01-1.01-1.6-1.77-1.6-0.75 0-1.43 0.59-1.76 1.6-5.63 15.22-8.41 25.47-8.41 30.93 0 4.28 1.09 8.41 2.94 11.43 1.95 3.02 4.47 4.71 7.24 4.71z m46.49-4.12c2.35-1.34 3.7-4.2 3.78-7.73 0.09-3.62-1.09-7.65-3.28-11.35-2.77-4.62-10.42-12.1-23.03-22.27-0.84-0.67-1.68-0.84-2.35-0.51-0.59 0.34-0.93 1.26-0.67 2.27 2.94 15.97 5.71 26.23 8.49 30.85 2.19 3.7 5.21 6.64 8.41 8.32 3.18 1.68 6.29 1.84 8.65 0.42z m-96.25 0c2.35 1.35 5.46 1.26 8.57-0.42 3.19-1.6 6.22-4.63 8.41-8.32 2.77-4.62 5.63-14.96 8.49-30.85 0.17-1.01-0.08-1.93-0.67-2.27-0.59-0.34-1.52-0.17-2.36 0.51-12.61 10.17-20.26 17.65-23.03 22.27-2.19 3.7-3.37 7.82-3.28 11.35 0.18 3.61 1.52 6.38 3.87 7.73z m0 0M720.95 890.43h-27.32l10.25-17.07h6.81l10.26 17.07z m0 0M707.92 947.59c2.69 0 5.3-1.68 7.23-4.71 1.93-3.02 2.94-7.14 2.94-11.43 0-5.38-2.77-15.72-8.41-30.93-0.34-1.01-1.01-1.6-1.77-1.6s-1.43 0.59-1.77 1.6c-5.63 15.22-8.41 25.47-8.41 30.93 0 4.29 1.09 8.41 2.94 11.43 1.95 2.94 4.56 4.71 7.25 4.71z m46.48-4.12c2.35-1.35 3.7-4.2 3.78-7.73 0.09-3.62-1.09-7.65-3.28-11.35-2.77-4.63-10.42-12.1-23.03-22.27-0.84-0.67-1.68-0.84-2.35-0.51-0.59 0.34-0.93 1.26-0.67 2.27 2.94 15.97 5.71 26.22 8.49 30.85 2.19 3.7 5.21 6.64 8.41 8.32 3.19 1.68 6.3 1.77 8.65 0.42z m-96.24 0c2.36 1.34 5.46 1.26 8.57-0.42 3.19-1.6 6.22-4.62 8.41-8.32 2.77-4.63 5.63-14.96 8.49-30.85 0.17-1.01-0.09-1.93-0.67-2.27-0.59-0.34-1.51-0.17-2.36 0.51-12.61 10.17-20.25 17.65-23.03 22.27-2.19 3.7-3.36 7.81-3.28 11.35 0.17 3.53 1.52 6.39 3.87 7.73z m0 0" fill="#B3B3B3" p-id="6191"></path><path d="M671.52 855.3H351.44c-16.73 0-30.35-13.62-30.35-30.34V298.68h380.69v526.27c0.09 16.82-13.53 30.35-30.26 30.35z m0 0" fill="#B3B3B3" p-id="6192"></path><path d="M721.7 188.15v61.61c0 5.8-4.45 10.43-9.92 10.43H314.45c-5.46 0-9.92-4.71-9.92-10.43v-61.61c0-1.93 0.5-3.78 1.34-5.29 1.77-3.11 4.88-5.13 8.57-5.13h397.33c5.48-0.09 9.93 4.62 9.93 10.42z m-427.42-52.7h43.29v18.24h-43.29v-18.24z m0 0" fill="#0B0100" p-id="6193"></path><path d="M315.89 156.71H251c0-15.05 14.54-27.32 32.44-27.32 17.91 0.01 32.45 12.2 32.45 27.32z m369.34-21.26h43.37v18.24h-43.37v-18.24z m0 0" fill="#0B0100" p-id="6194"></path><path d="M706.83 156.71h65.14c0-15.05-14.54-27.32-32.53-27.32-17.99 0.01-32.61 12.2-32.61 27.32z m0 0" fill="#0B0100" p-id="6195"></path><path d="M702.12 293.14H321.35V169.4c0-45.47 36.48-82.37 81.45-82.37h217.7c44.97 0 81.45 36.9 81.45 82.37v123.73h0.17z m0 0" fill="#B3B3B3" p-id="6196"></path><path d="M700.44 293.14H323.03V169.4c0-45.47 36.15-82.37 80.78-82.37h215.85c44.63 0 80.78 36.9 80.78 82.37v123.74z m0 0" fill="#B3B3B3" p-id="6197"></path><path d="M330.77 282.63v-124.4c8.99 0 16.31 7.31 16.31 16.31v91.87c-0.01 8.91-7.32 16.22-16.31 16.22z m366.47 1.51v-124.4c-8.99 0-16.31 7.31-16.31 16.31v91.87c0.01 8.91 7.32 16.22 16.31 16.22zM664.55 141.5H358.42v-0.59c0-18.08 14.71-32.78 32.78-32.78h240.56c18.08 0 32.79 14.71 32.79 32.78v0.59z m0 0" fill="#FFFFFF" p-id="6198"></path><path d="M664.55 142.59h-305.8v-0.42c0-12.69 10.26-22.95 22.95-22.95h259.9c12.69 0 22.95 10.25 22.95 22.95v0.42z m0 0" p-id="6199"></path></svg>