<?xml version="1.0" encoding="utf-8"?>
<!-- Generator: Adobe Illustrator 23.0.0, SVG Export Plug-In . SVG Version: 6.00 Build 0)  -->
<svg version="1.1" id="图层_1" xmlns="http://www.w3.org/2000/svg" xmlns:xlink="http://www.w3.org/1999/xlink" x="0px" y="0px"
	 viewBox="0 0 1024 1024" style="enable-background:new 0 0 1024 1024;" xml:space="preserve">
<style type="text/css">
	.st0{fill:#0B0100;}
	.st1{fill:#B3B3B3;}
	.st2{fill:#E55300;}
	.st3{fill:#0084FF;}
	.st4{fill:#FFFFFF;}
	.st5{fill:none;stroke:#B3B3B3;stroke-width:1.8605;stroke-miterlimit:10;}
	.st6{display:none;}
	.st7{display:inline;fill:#0B0100;}
	.st8{display:inline;fill:#B3B3B3;}
	.st9{display:inline;}
	.st10{fill:#FF0000;}
	.st11{fill:none;stroke:#B3B3B3;stroke-width:1.8607;stroke-miterlimit:10;}
	.st12{fill:#EBF5EA;}
	.st13{fill:#1D140D;}
</style>
<g id="洒水车_2_">
	<path class="st0" d="M725.7,829.8H297.5c-20,0-36.2-18.9-36.2-42.2v-62.8c0-23.3,16.2-42.2,36.2-42.2h428.1
		c20,0,36.2,18.9,36.2,42.2v62.8C761.9,810.9,745.7,829.8,725.7,829.8z"/>
	<rect id="联接_6_" x="392.4" y="244.1" class="st1" width="238.4" height="12.3"/>
	<g>
		<path class="st2" d="M762.7,935.3H257.1c-3.9,0-7-3.2-7-7V926c0-3.9,3.2-7,7-7h505.6c3.9,0,7,3.2,7,7v2.2
			C769.7,932,766.6,935.3,762.7,935.3z"/>
		<path class="st2" d="M641,943H378.7c-9.8,0-17.8-8-17.8-17.8v-13.9h297.9v13.9C658.9,935,650.8,943,641,943z"/>
		<g>
			<g>
				<polygon class="st2" points="293.9,955.5 261.4,955.5 273.6,935.3 281.7,935.3 				"/>
				<g>
					<g>
						<g>
							<path class="st3" d="M278.4,1023.5c3.2,0,6.3-2,8.6-5.6c2.3-3.6,3.5-8.5,3.5-13.6c0-6.4-3.3-18.7-10-36.8
								c-0.4-1.2-1.2-1.9-2.1-1.9s-1.7,0.7-2.1,1.9c-6.7,18.1-10,30.3-10,36.8c0,5.1,1.3,10,3.5,13.6
								C272.1,1021.5,275.1,1023.5,278.4,1023.5L278.4,1023.5z"/>
						</g>
					</g>
					<g>
						<g>
							<path class="st3" d="M333.7,1018.5c2.8-1.6,4.4-5,4.5-9.2c0.1-4.3-1.3-9.1-3.9-13.5c-3.3-5.5-12.4-14.4-27.4-26.5
								c-1-0.8-2-1-2.8-0.6c-0.7,0.4-1.1,1.5-0.8,2.7c3.5,19,6.8,31.2,10.1,36.7c2.6,4.4,6.2,7.9,10,9.9
								C327.2,1020,330.9,1020.3,333.7,1018.5L333.7,1018.5z"/>
						</g>
					</g>
					<g>
						<g>
							<path class="st3" d="M219.2,1018.5c2.8,1.6,6.5,1.5,10.2-0.5c3.8-1.9,7.4-5.5,10-9.9c3.3-5.5,6.7-17.8,10.1-36.7
								c0.2-1.2-0.1-2.3-0.8-2.7s-1.8-0.2-2.8,0.6c-15,12.1-24.1,21-27.4,26.5c-2.6,4.4-4,9.3-3.9,13.5
								C214.8,1013.7,216.4,1017,219.2,1018.5L219.2,1018.5z"/>
						</g>
					</g>
				</g>
			</g>
			<g>
				<polygon class="st2" points="760.8,955.4 728.3,955.4 740.5,935 748.6,935 				"/>
				<g>
					<g>
						<g>
							<path class="st3" d="M745.3,1023.4c3.2,0,6.3-2,8.6-5.6s3.5-8.5,3.5-13.6c0-6.4-3.3-18.7-10-36.8c-0.4-1.2-1.2-1.9-2.1-1.9
								c-0.9,0-1.7,0.7-2.1,1.9c-6.7,18.1-10,30.3-10,36.8c0,5.1,1.3,10,3.5,13.6C739,1021.3,742.1,1023.4,745.3,1023.4
								L745.3,1023.4z"/>
						</g>
					</g>
					<g>
						<g>
							<path class="st3" d="M800.6,1018.5c2.8-1.6,4.4-5,4.5-9.2c0.1-4.3-1.3-9.1-3.9-13.5c-3.3-5.5-12.4-14.4-27.4-26.5
								c-1-0.8-2-1-2.8-0.6c-0.7,0.4-1.1,1.5-0.8,2.7c3.5,19,6.8,31.2,10.1,36.7c2.6,4.4,6.2,7.9,10,9.9
								C794.1,1020,797.8,1020,800.6,1018.5L800.6,1018.5z"/>
						</g>
					</g>
					<g>
						<g>
							<path class="st3" d="M686.1,1018.5c2.8,1.6,6.5,1.5,10.2-0.5c3.8-1.9,7.4-5.5,10-9.9c3.3-5.5,6.7-17.8,10.1-36.7
								c0.2-1.2-0.1-2.3-0.8-2.7s-1.8-0.2-2.8,0.6c-15,12.1-24.1,21-27.4,26.5c-2.6,4.4-4,9.3-3.9,13.5
								C681.7,1013.5,683.3,1016.9,686.1,1018.5L686.1,1018.5z"/>
						</g>
					</g>
				</g>
			</g>
		</g>
	</g>
	<g>
		<path class="st2" d="M702,913.5H321.2c-19.9,0-36.1-16.2-36.1-36.1V251.3H738v626.1C738.1,897.5,721.9,913.5,702,913.5z"/>
	</g>
	<g id="车头_6_">
		<path class="st0" d="M761.7,119.9v73.3c0,6.9-5.3,12.4-11.8,12.4H277.2c-6.5,0-11.8-5.6-11.8-12.4v-73.3c0-2.3,0.6-4.5,1.6-6.3
			c2.1-3.7,5.8-6.1,10.2-6.1h472.7C756.4,107.4,761.7,112.9,761.7,119.9z"/>
		<g>
			<rect x="253.2" y="57.2" class="st0" width="51.5" height="21.7"/>
			<path class="st0" d="M278.9,82.4h-77.2c0-17.9,17.3-32.5,38.6-32.5S278.9,64.4,278.9,82.4z"/>
		</g>
		<g>
			<rect x="718.3" y="57.2" class="st0" width="51.6" height="21.7"/>
			<path class="st0" d="M744,82.4h77.5c0-17.9-17.3-32.5-38.7-32.5S744,64.4,744,82.4z"/>
		</g>
		<g>
			<path class="st2" d="M738.4,244.8h-453V97.6c0-54.1,43.4-98,96.9-98h259c53.5,0,96.9,43.9,96.9,98v147.2L738.4,244.8L738.4,244.8
				z"/>
		</g>
		<path class="st4" d="M296.6,232.3L296.6,232.3v-148l0,0c10.7,0,19.4,8.7,19.4,19.4V213C316,223.6,307.3,232.3,296.6,232.3z"/>
		<path class="st4" d="M732.6,234.1L732.6,234.1v-148l0,0c-10.7,0-19.4,8.7-19.4,19.4v109.3C713.2,225.3,721.9,234.1,732.6,234.1z"
			/>
		<path class="st4" d="M693.7,64.4H329.5v-0.7c0-21.5,17.5-39,39-39h286.2c21.5,0,39,17.5,39,39V64.4z"/>
		<path d="M693.7,65.6H329.9v-0.5c0-15.1,12.2-27.3,27.3-27.3h309.2c15.1,0,27.3,12.2,27.3,27.3V65.6z"/>
		<path class="st5" d="M597.4,244.8H425.8c-53.2,0-96.3-43.1-96.3-96.3V66.1h364.1v82.4C693.7,201.8,650.6,244.8,597.4,244.8z"/>
	</g>
</g>
<g id="清扫车_2_" class="st6">
	<path class="st7" d="M725.6,878.8H297.4c-20,0-36.3-18.9-36.3-42.2v-62.8c0-23.3,16.2-42.2,36.3-42.2h428.2
		c20,0,36.3,18.9,36.3,42.2v62.8C761.9,859.9,745.6,878.8,725.6,878.8z"/>
	<rect id="联接_7_" x="392.3" y="293.2" class="st8" width="238.4" height="12.3"/>
	<g class="st9">
		<g>
			<polygon class="st10" points="287.1,542 110.9,553 110.9,520 287.1,531 			"/>
			<polygon class="st10" points="289,524.8 130.9,446.2 147.4,417.6 294.6,515.3 			"/>
			<polygon class="st10" points="294.6,557.8 147.4,655.5 130.9,626.9 289,548.3 			"/>
		</g>
		<g>
			<polygon class="st10" points="736,542 912.2,553 912.2,520 736,531 			"/>
			<polygon class="st10" points="734,524.8 892.1,446.2 875.6,417.6 728.5,515.3 			"/>
			<polygon class="st10" points="728.5,557.8 875.6,655.5 892.1,626.9 734,548.3 			"/>
		</g>
	</g>
	<g class="st9">
		<path class="st2" d="M701.9,962.7H321.1c-19.9,0-36.1-16.2-36.1-36.1V300.4h453v626.2C738,946.5,721.9,962.7,701.9,962.7z"/>
	</g>
	<g id="车头_7_" class="st9">
		<path class="st0" d="M761.6,168.8v73.3c0,6.9-5.3,12.4-11.8,12.4H277.1c-6.5,0-11.8-5.6-11.8-12.4v-73.3c0-2.3,0.6-4.5,1.6-6.3
			c2.1-3.7,5.8-6.1,10.2-6.1h472.7C756.3,156.3,761.6,161.9,761.6,168.8z"/>
		<g>
			<rect x="253.1" y="106.1" class="st0" width="51.5" height="21.7"/>
			<path class="st0" d="M278.8,131.3h-77.2c0-17.9,17.3-32.5,38.6-32.5S278.8,113.4,278.8,131.3z"/>
		</g>
		<g>
			<rect x="718.1" y="106.1" class="st0" width="51.7" height="21.7"/>
			<path class="st0" d="M744,131.3h77.5c0-17.9-17.3-32.5-38.7-32.5S744,113.4,744,131.3z"/>
		</g>
		<g>
			<path class="st2" d="M738.3,293.8h-453V146.4c0-54.1,43.4-98,97-98h259.1c53.5,0,97,43.9,97,98L738.3,293.8L738.3,293.8z"/>
		</g>
		<path class="st4" d="M296.5,281.3L296.5,281.3v-148l0,0c10.7,0,19.4,8.7,19.4,19.4V262C315.9,272.6,307.2,281.3,296.5,281.3z"/>
		<path class="st4" d="M732.6,283.1L732.6,283.1v-148l0,0c-10.7,0-19.4,8.7-19.4,19.4v109.3C713.2,274.4,721.9,283.1,732.6,283.1z"
			/>
		<path class="st4" d="M693.6,113.4H329.4v-0.7c0-21.5,17.5-39,39-39h286.2c21.5,0,39,17.5,39,39V113.4z"/>
		<path d="M693.6,114.6H329.8v-0.5c0-15.1,12.2-27.3,27.3-27.3h309.2c15.1,0,27.3,12.2,27.3,27.3V114.6L693.6,114.6z"/>
		<path class="st11" d="M597.3,293.9H425.8c-53.2,0-96.3-43.1-96.3-96.3v-82.4h364.2v82.4C693.6,250.8,650.5,293.9,597.3,293.9z"/>
	</g>
</g>
<g id="垃圾车" class="st6">
	<path class="st7" d="M725.9,854.3H297.8c-20,0-36.3-18.9-36.3-42.2v-62.8c0-23.3,16.2-42.2,36.3-42.2H726c20,0,36.3,18.9,36.3,42.2
		V812C762.2,835.5,745.9,854.3,725.9,854.3z"/>
	<rect id="联接_8_" x="392.6" y="268.8" class="st8" width="238.4" height="12.3"/>
	<g class="st9">
		<path class="st2" d="M702.2,938.2H321.4c-19.9,0-36.1-16.2-36.1-36.1V275.9h453V902C738.3,922,722.2,938.2,702.2,938.2z"/>
	</g>
	<g id="车头_8_" class="st9">
		<path class="st0" d="M761.9,144.3v73.3c0,6.9-5.3,12.4-11.8,12.4H277.4c-6.5,0-11.8-5.6-11.8-12.4v-73.3c0-2.3,0.6-4.5,1.6-6.3
			c2.1-3.7,5.8-6.1,10.2-6.1h472.7C756.7,131.9,761.9,137.4,761.9,144.3z"/>
		<g>
			<rect x="253.4" y="81.6" class="st0" width="51.5" height="21.7"/>
			<path class="st0" d="M279.1,106.9h-77.2c0-17.9,17.3-32.5,38.6-32.5S279.1,89.1,279.1,106.9z"/>
		</g>
		<g>
			<rect x="718.4" y="81.6" class="st0" width="51.7" height="21.7"/>
			<path class="st0" d="M744.3,106.9h77.5c0-17.9-17.3-32.5-38.7-32.5S744.3,89.1,744.3,106.9z"/>
		</g>
		<g>
			<path class="st2" d="M738.6,269.4h-453V122.1c0-54.1,43.4-98,97-98h259.1c53.5,0,97,43.9,97,98L738.6,269.4L738.6,269.4z"/>
		</g>
		<path class="st4" d="M296.8,256.8L296.8,256.8v-148l0,0c10.7,0,19.4,8.7,19.4,19.4v109.3C316.2,248.1,307.5,256.8,296.8,256.8z"/>
		<path class="st4" d="M732.9,258.6L732.9,258.6v-148l0,0c-10.7,0-19.4,8.7-19.4,19.4v109.3C713.5,249.9,722.2,258.6,732.9,258.6z"
			/>
		<path class="st4" d="M693.9,88.9H329.7v-0.7c0-21.5,17.5-39,39-39h286.2c21.5,0,39,17.5,39,39V88.9z"/>
		<path d="M693.9,90.1H330.1v-0.5c0-15.1,12.2-27.3,27.3-27.3h309.2c15.1,0,27.3,12.2,27.3,27.3L693.9,90.1L693.9,90.1z"/>
		<path class="st11" d="M597.6,269.5H426.1c-53.2,0-96.3-43.1-96.3-96.3V90.6H694V173C693.9,226.3,650.8,269.5,597.6,269.5z"/>
	</g>
	<g class="st9">
		<path class="st12" d="M339.7,959.5h-4.9c-11.5,0-20.8-9.4-20.8-20.8v-171c0-11.5,9.4-20.8,20.8-20.8h4.9
			c11.5,0,20.8,9.4,20.8,20.8v171C360.5,950.2,351.2,959.5,339.7,959.5z"/>
		<path class="st12" d="M684,959.5h4.9c11.5,0,20.8-9.4,20.8-20.8v-171c0-11.5-9.4-20.8-20.8-20.8H684c-11.5,0-20.8,9.4-20.8,20.8
			v171C663.1,950.2,672.5,959.5,684,959.5z"/>
		<path class="st12" d="M698.1,844.2v-5.6c0-11.5-9.4-20.8-20.8-20.8H346.4c-11.5,0-20.8,9.4-20.8,20.8v5.6
			c0,11.5,9.4,20.8,20.8,20.8h330.8C688.7,865,698.1,855.7,698.1,844.2z"/>
		<rect x="314" y="939.9" class="st13" width="46.6" height="47.2"/>
		<rect x="663" y="939.9" class="st13" width="46.6" height="47.2"/>
	</g>
</g>
</svg>
