<?xml version="1.0" encoding="utf-8"?>
<!-- Generator: Adobe Illustrator 23.0.0, SVG Export Plug-In . SVG Version: 6.00 Build 0)  -->
<svg version="1.1" id="图层_1" xmlns="http://www.w3.org/2000/svg" xmlns:xlink="http://www.w3.org/1999/xlink" x="0px" y="0px"
	 viewBox="0 0 1024 1024" style="enable-background:new 0 0 1024 1024;" xml:space="preserve">
<style type="text/css">
	.st0{fill:#0B0100;}
	.st1{fill:#B3B3B3;}
	.st2{fill:#FBB03B;}
	.st3{fill:#0084FF;}
	.st4{fill:#FFFFFF;}
	.st5{fill:none;stroke:#B3B3B3;stroke-width:1.8605;stroke-miterlimit:10;}
	.st6{display:none;}
	.st7{display:inline;fill:#0B0100;}
	.st8{display:inline;fill:#B3B3B3;}
	.st9{display:inline;}
	.st10{fill:#FF0000;}
	.st11{fill:none;stroke:#B3B3B3;stroke-width:1.8607;stroke-miterlimit:10;}
	.st12{fill:#EBF5EA;}
	.st13{fill:#1D140D;}
</style>
<g id="停车">
	<g id="洒水车_1_">
		<path class="st0" d="M725.8,830.4H297.6c-20,0-36.2-18.9-36.2-42.2v-62.8c0-23.3,16.2-42.2,36.2-42.2h428.1
			c20,0,36.2,18.9,36.2,42.2v62.7C762,811.5,745.8,830.4,725.8,830.4z"/>
		<rect id="联接_3_" x="392.5" y="244.7" class="st1" width="238.4" height="12.3"/>
		<g>
			<path class="st2" d="M762.8,935.9H257.2c-3.9,0-7-3.2-7-7v-2.2c0-3.9,3.2-7,7-7h505.6c3.9,0,7,3.2,7,7v2.2
				C769.8,932.6,766.7,935.9,762.8,935.9z"/>
			<path class="st2" d="M641.1,943.6H378.8c-9.8,0-17.8-8-17.8-17.8v-13.9h297.9v13.9C659,935.6,650.9,943.6,641.1,943.6z"/>
			<g>
				<g>
					<polygon class="st2" points="294,956.1 261.5,956.1 273.7,935.9 281.8,935.9 					"/>
					<g>
						<g>
							<g>
								<path class="st3" d="M278.5,1024.1c3.2,0,6.3-2,8.6-5.6c2.3-3.6,3.5-8.5,3.5-13.6c0-6.4-3.3-18.7-10-36.8
									c-0.4-1.2-1.2-1.9-2.1-1.9s-1.7,0.7-2.1,1.9c-6.7,18.1-10,30.3-10,36.8c0,5.1,1.3,10,3.5,13.6
									C272.2,1022.1,275.2,1024.1,278.5,1024.1L278.5,1024.1z"/>
							</g>
						</g>
						<g>
							<g>
								<path class="st3" d="M333.8,1019.1c2.8-1.6,4.4-5,4.5-9.2c0.1-4.3-1.3-9.1-3.9-13.5c-3.3-5.5-12.4-14.4-27.4-26.5
									c-1-0.8-2-1-2.8-0.6c-0.7,0.4-1.1,1.5-0.8,2.7c3.5,19,6.8,31.2,10.1,36.7c2.6,4.4,6.2,7.9,10,9.9
									C327.3,1020.6,331,1020.9,333.8,1019.1L333.8,1019.1z"/>
							</g>
						</g>
						<g>
							<g>
								<path class="st3" d="M219.3,1019.1c2.8,1.6,6.5,1.5,10.2-0.5c3.8-1.9,7.4-5.5,10-9.9c3.3-5.5,6.7-17.8,10.1-36.7
									c0.2-1.2-0.1-2.3-0.8-2.7s-1.8-0.2-2.8,0.6c-15,12.1-24.1,21-27.4,26.5c-2.6,4.4-4,9.3-3.9,13.5
									C214.9,1014.3,216.5,1017.6,219.3,1019.1L219.3,1019.1z"/>
							</g>
						</g>
					</g>
				</g>
				<g>
					<polygon class="st2" points="760.9,956 728.4,956 740.6,935.6 748.7,935.6 					"/>
					<g>
						<g>
							<g>
								<path class="st3" d="M745.4,1024c3.2,0,6.3-2,8.6-5.6s3.5-8.5,3.5-13.6c0-6.4-3.3-18.7-10-36.8c-0.4-1.2-1.2-1.9-2.1-1.9
									c-0.9,0-1.7,0.7-2.1,1.9c-6.7,18.1-10,30.3-10,36.8c0,5.1,1.3,10,3.5,13.6C739.1,1021.9,742.2,1024,745.4,1024L745.4,1024z"
									/>
							</g>
						</g>
						<g>
							<g>
								<path class="st3" d="M800.7,1019.1c2.8-1.6,4.4-5,4.5-9.2c0.1-4.3-1.3-9.1-3.9-13.5c-3.3-5.5-12.4-14.4-27.4-26.5
									c-1-0.8-2-1-2.8-0.6c-0.7,0.4-1.1,1.5-0.8,2.7c3.5,19,6.8,31.2,10.1,36.7c2.6,4.4,6.2,7.9,10,9.9
									C794.2,1020.6,797.9,1020.6,800.7,1019.1L800.7,1019.1z"/>
							</g>
						</g>
						<g>
							<g>
								<path class="st3" d="M686.2,1019.1c2.8,1.6,6.5,1.5,10.2-0.5c3.8-1.9,7.4-5.5,10-9.9c3.3-5.5,6.7-17.8,10.1-36.7
									c0.2-1.2-0.1-2.3-0.8-2.7s-1.8-0.2-2.8,0.6c-15,12.1-24.1,21-27.4,26.5c-2.6,4.4-4,9.3-3.9,13.5
									C681.8,1014.1,683.4,1017.5,686.2,1019.1L686.2,1019.1z"/>
							</g>
						</g>
					</g>
				</g>
			</g>
		</g>
		<g>
			<path class="st2" d="M702.1,914.1H321.3c-19.9,0-36.1-16.2-36.1-36.1V251.9h452.9v626.2C738.2,898.1,722,914.1,702.1,914.1z"/>
		</g>
		<g id="车头_3_">
			<path class="st0" d="M761.8,120.5v73.3c0,6.9-5.3,12.4-11.8,12.4H277.3c-6.5,0-11.8-5.6-11.8-12.4v-73.3c0-2.3,0.6-4.5,1.6-6.3
				c2.1-3.7,5.8-6.1,10.2-6.1H750C756.5,108,761.8,113.5,761.8,120.5z"/>
			<g>
				<rect x="253.3" y="57.8" class="st0" width="51.5" height="21.7"/>
				<path class="st0" d="M279,83h-77.2c0-17.9,17.3-32.5,38.6-32.5S279,65,279,83z"/>
			</g>
			<g>
				<rect x="718.4" y="57.8" class="st0" width="51.6" height="21.7"/>
				<path class="st0" d="M744.1,83h77.5c0-17.9-17.3-32.5-38.7-32.5S744.1,65,744.1,83z"/>
			</g>
			<g>
				<path class="st2" d="M738.5,245.4h-453V98.2c0-54.1,43.4-98,96.9-98h259c53.5,0,96.9,43.9,96.9,98v147.2L738.5,245.4
					L738.5,245.4z"/>
			</g>
			<path class="st4" d="M296.7,232.9L296.7,232.9v-148l0,0c10.7,0,19.4,8.7,19.4,19.4v109.3C316.1,224.2,307.4,232.9,296.7,232.9z"
				/>
			<path class="st4" d="M732.7,234.7L732.7,234.7v-148l0,0c-10.7,0-19.4,8.7-19.4,19.4v109.3C713.3,225.9,722,234.7,732.7,234.7z"/>
			<path class="st4" d="M693.8,65H329.6v-0.7c0-21.5,17.5-39,39-39h286.2c21.5,0,39,17.5,39,39V65z"/>
			<path d="M693.8,66.2H330v-0.5c0-15.1,12.2-27.3,27.3-27.3h309.2c15.1,0,27.3,12.2,27.3,27.3L693.8,66.2L693.8,66.2z"/>
			<path class="st5" d="M597.5,245.4H425.9c-53.2,0-96.3-43.1-96.3-96.3V66.7h364.1v82.4C693.8,202.4,650.7,245.4,597.5,245.4z"/>
		</g>
	</g>
	<g id="清扫车_1_" class="st6">
		<path class="st7" d="M725.6,879.4H297.4c-20,0-36.3-18.9-36.3-42.2v-62.8c0-23.3,16.2-42.2,36.3-42.2h428.2
			c20,0,36.3,18.9,36.3,42.2v62.7C761.9,860.5,745.6,879.4,725.6,879.4z"/>
		<rect id="联接_4_" x="392.3" y="293.8" class="st8" width="238.4" height="12.3"/>
		<g class="st9">
			<g>
				<polygon class="st10" points="287.1,542.6 110.9,553.6 110.9,520.6 287.1,531.6 				"/>
				<polygon class="st10" points="289,525.4 130.9,446.8 147.4,418.2 294.6,515.9 				"/>
				<polygon class="st10" points="294.6,558.4 147.4,656.1 130.9,627.5 289,548.9 				"/>
			</g>
			<g>
				<polygon class="st10" points="736,542.6 912.2,553.6 912.2,520.6 736,531.6 				"/>
				<polygon class="st10" points="734,525.4 892.1,446.8 875.6,418.2 728.5,515.9 				"/>
				<polygon class="st10" points="728.5,558.4 875.6,656.1 892.1,627.5 734,548.9 				"/>
			</g>
		</g>
		<g class="st9">
			<path class="st2" d="M701.9,963.3H321.1c-19.9,0-36.1-16.2-36.1-36.1V301h453v626.1C738,947.1,721.9,963.3,701.9,963.3z"/>
		</g>
		<g id="车头_4_" class="st9">
			<path class="st0" d="M761.6,169.4v73.3c0,6.9-5.3,12.4-11.8,12.4H277.1c-6.5,0-11.8-5.6-11.8-12.4v-73.3c0-2.3,0.6-4.5,1.6-6.3
				c2.1-3.7,5.8-6.1,10.2-6.1h472.7C756.3,156.9,761.6,162.5,761.6,169.4z"/>
			<g>
				<rect x="253.1" y="106.7" class="st0" width="51.5" height="21.7"/>
				<path class="st0" d="M278.8,131.9h-77.2c0-17.9,17.3-32.5,38.6-32.5S278.8,114,278.8,131.9z"/>
			</g>
			<g>
				<rect x="718.1" y="106.7" class="st0" width="51.7" height="21.7"/>
				<path class="st0" d="M744,131.9h77.5c0-17.9-17.3-32.5-38.7-32.5S744,114,744,131.9z"/>
			</g>
			<g>
				<path class="st2" d="M738.3,294.4h-453V147c0-54.1,43.4-98,97-98h259.1c53.5,0,97,43.9,97,98L738.3,294.4L738.3,294.4z"/>
			</g>
			<path class="st4" d="M296.5,281.9L296.5,281.9v-148l0,0c10.7,0,19.4,8.7,19.4,19.4v109.3C315.9,273.2,307.2,281.9,296.5,281.9z"
				/>
			<path class="st4" d="M732.6,283.7L732.6,283.7v-148l0,0c-10.7,0-19.4,8.7-19.4,19.4v109.3C713.2,275,721.9,283.7,732.6,283.7z"/>
			<path class="st4" d="M693.6,114H329.4v-0.7c0-21.5,17.5-39,39-39h286.2c21.5,0,39,17.5,39,39V114z"/>
			<path d="M693.6,115.2H329.8v-0.5c0-15.1,12.2-27.3,27.3-27.3h309.2c15.1,0,27.3,12.2,27.3,27.3V115.2L693.6,115.2z"/>
			<path class="st11" d="M597.3,294.5H425.8c-53.2,0-96.3-43.1-96.3-96.3v-82.4h364.2v82.3C693.6,251.4,650.5,294.5,597.3,294.5z"/>
		</g>
	</g>
	<g id="垃圾车_1_" class="st6">
		<path class="st7" d="M725.7,854.9H297.6c-20,0-36.3-18.9-36.3-42.2v-62.8c0-23.3,16.2-42.2,36.3-42.2h428.2
			c20,0,36.3,18.9,36.3,42.2v62.8C762,836.1,745.7,854.9,725.7,854.9z"/>
		<rect id="联接_5_" x="392.4" y="269.4" class="st8" width="238.4" height="12.3"/>
		<g class="st9">
			<path class="st2" d="M702,938.8H321.2c-19.9,0-36.1-16.2-36.1-36.1V276.5h453v626.2C738.1,922.6,722,938.8,702,938.8z"/>
		</g>
		<g id="车头_5_" class="st9">
			<path class="st0" d="M761.7,144.9v73.3c0,6.9-5.3,12.4-11.8,12.4H277.2c-6.5,0-11.8-5.6-11.8-12.4v-73.3c0-2.3,0.6-4.5,1.6-6.3
				c2.1-3.7,5.8-6.1,10.2-6.1h472.7C756.5,132.5,761.7,138,761.7,144.9z"/>
			<g>
				<rect x="253.2" y="82.2" class="st0" width="51.5" height="21.7"/>
				<path class="st0" d="M278.9,107.5h-77.2c0-17.9,17.3-32.5,38.6-32.5S278.9,89.7,278.9,107.5z"/>
			</g>
			<g>
				<rect x="718.2" y="82.2" class="st0" width="51.7" height="21.7"/>
				<path class="st0" d="M744.1,107.5h77.5c0-17.9-17.3-32.5-38.7-32.5S744.1,89.7,744.1,107.5z"/>
			</g>
			<g>
				<path class="st2" d="M738.4,270h-453V122.7c0-54.1,43.4-98,97-98h259.1c53.5,0,97,43.9,97,98L738.4,270L738.4,270z"/>
			</g>
			<path class="st4" d="M296.6,257.4L296.6,257.4v-148l0,0c10.7,0,19.4,8.7,19.4,19.4v109.3C316,248.7,307.3,257.4,296.6,257.4z"/>
			<path class="st4" d="M732.7,259.2L732.7,259.2v-148l0,0c-10.7,0-19.4,8.7-19.4,19.4v109.3C713.3,250.5,722,259.2,732.7,259.2z"/>
			<path class="st4" d="M693.7,89.5H329.5v-0.7c0-21.5,17.5-39,39-39h286.2c21.5,0,39,17.5,39,39L693.7,89.5L693.7,89.5z"/>
			<path d="M693.7,90.7H329.9v-0.5c0-15.1,12.2-27.3,27.3-27.3h309.2c15.1,0,27.3,12.2,27.3,27.3V90.7L693.7,90.7z"/>
			<path class="st11" d="M597.4,270.1H425.9c-53.2,0-96.3-43.1-96.3-96.3V91.2h364.2v82.4C693.7,226.9,650.6,270.1,597.4,270.1z"/>
		</g>
		<g class="st9">
			<path class="st12" d="M339.5,960.1h-4.9c-11.5,0-20.8-9.4-20.8-20.8v-171c0-11.5,9.4-20.8,20.8-20.8h4.9
				c11.5,0,20.8,9.4,20.8,20.8v171C360.3,950.8,351,960.1,339.5,960.1z"/>
			<path class="st12" d="M683.8,960.1h4.9c11.5,0,20.8-9.4,20.8-20.8v-171c0-11.5-9.4-20.8-20.8-20.8h-4.9
				c-11.5,0-20.8,9.4-20.8,20.8v171C662.9,950.8,672.3,960.1,683.8,960.1z"/>
			<path class="st12" d="M697.9,844.8v-5.6c0-11.5-9.4-20.8-20.8-20.8H346.2c-11.5,0-20.8,9.4-20.8,20.8v5.6
				c0,11.5,9.4,20.8,20.8,20.8H677C688.5,865.6,697.9,856.3,697.9,844.8z"/>
			<rect x="313.8" y="940.5" class="st13" width="46.6" height="47.2"/>
			<rect x="662.8" y="940.5" class="st13" width="46.6" height="47.2"/>
		</g>
	</g>
</g>
</svg>
