<?xml version="1.0" encoding="utf-8"?>
<!-- Generator: Adobe Illustrator 23.0.0, SVG Export Plug-In . SVG Version: 6.00 Build 0)  -->
<svg version="1.1" id="图层_1" xmlns="http://www.w3.org/2000/svg" xmlns:xlink="http://www.w3.org/1999/xlink" x="0px" y="0px"
	 viewBox="0 0 1024 1024" style="enable-background:new 0 0 1024 1024;" xml:space="preserve">
<style type="text/css">
	.st0{fill:#0B0100;}
	.st1{fill:#B3B3B3;}
	.st2{fill:#5CDFFF;}
	.st3{fill:#0084FF;}
	.st4{fill:#FFFFFF;}
	.st5{fill:none;stroke:#B3B3B3;stroke-width:1.8605;stroke-miterlimit:10;}
</style>
<g id="洒水车充电">
	<path class="st0" d="M725.8,830.3H297.6c-20,0-36.2-18.9-36.2-42.2v-62.8c0-23.3,16.2-42.2,36.2-42.2h428.1
		c20,0,36.2,18.9,36.2,42.2V788C762,811.4,745.8,830.3,725.8,830.3z"/>
	<rect id="联接_6_" x="392.5" y="244.6" class="st1" width="238.4" height="12.3"/>
	<g>
		<path class="st2" d="M762.8,935.8H257.2c-3.9,0-7-3.2-7-7v-2.2c0-3.9,3.2-7,7-7h505.6c3.9,0,7,3.2,7,7v2.2
			C769.8,932.5,766.7,935.8,762.8,935.8z"/>
		<path class="st2" d="M641.1,943.5H378.8c-9.8,0-17.8-8-17.8-17.8v-13.9h297.9v13.9C659,935.5,650.9,943.5,641.1,943.5z"/>
		<g>
			<g>
				<polygon class="st2" points="294,956 261.5,956 273.7,935.8 281.8,935.8 				"/>
				<g>
					<g>
						<g>
							<path class="st3" d="M278.5,1024c3.2,0,6.3-2,8.6-5.6c2.3-3.6,3.5-8.5,3.5-13.6c0-6.4-3.3-18.7-10-36.8
								c-0.4-1.2-1.2-1.9-2.1-1.9s-1.7,0.7-2.1,1.9c-6.7,18.1-10,30.3-10,36.8c0,5.1,1.3,10,3.5,13.6
								C272.2,1022,275.2,1024,278.5,1024L278.5,1024z"/>
						</g>
					</g>
					<g>
						<g>
							<path class="st3" d="M333.8,1019c2.8-1.6,4.4-5,4.5-9.2c0.1-4.3-1.3-9.1-3.9-13.5c-3.3-5.5-12.4-14.4-27.4-26.5
								c-1-0.8-2-1-2.8-0.6c-0.7,0.4-1.1,1.5-0.8,2.7c3.5,19,6.8,31.2,10.1,36.7c2.6,4.4,6.2,7.9,10,9.9
								C327.3,1020.5,331,1020.8,333.8,1019L333.8,1019z"/>
						</g>
					</g>
					<g>
						<g>
							<path class="st3" d="M219.3,1019c2.8,1.6,6.5,1.5,10.2-0.5c3.8-1.9,7.4-5.5,10-9.9c3.3-5.5,6.7-17.8,10.1-36.7
								c0.2-1.2-0.1-2.3-0.8-2.7c-0.7-0.4-1.8-0.2-2.8,0.6c-15,12.1-24.1,21-27.4,26.5c-2.6,4.4-4,9.3-3.9,13.5
								C214.9,1014.2,216.5,1017.5,219.3,1019L219.3,1019z"/>
						</g>
					</g>
				</g>
			</g>
			<g>
				<polygon class="st2" points="760.9,955.9 728.4,955.9 740.6,935.5 748.7,935.5 				"/>
				<g>
					<g>
						<g>
							<path class="st3" d="M745.4,1023.9c3.2,0,6.3-2,8.6-5.6s3.5-8.5,3.5-13.6c0-6.4-3.3-18.7-10-36.8c-0.4-1.2-1.2-1.9-2.1-1.9
								c-0.9,0-1.7,0.7-2.1,1.9c-6.7,18.1-10,30.3-10,36.8c0,5.1,1.3,10,3.5,13.6C739.1,1021.8,742.2,1023.9,745.4,1023.9
								L745.4,1023.9z"/>
						</g>
					</g>
					<g>
						<g>
							<path class="st3" d="M800.7,1019c2.8-1.6,4.4-5,4.5-9.2c0.1-4.3-1.3-9.1-3.9-13.5c-3.3-5.5-12.4-14.4-27.4-26.5
								c-1-0.8-2-1-2.8-0.6c-0.7,0.4-1.1,1.5-0.8,2.7c3.5,19,6.8,31.2,10.1,36.7c2.6,4.4,6.2,7.9,10,9.9
								C794.2,1020.5,797.9,1020.5,800.7,1019L800.7,1019z"/>
						</g>
					</g>
					<g>
						<g>
							<path class="st3" d="M686.2,1019c2.8,1.6,6.5,1.5,10.2-0.5c3.8-1.9,7.4-5.5,10-9.9c3.3-5.5,6.7-17.8,10.1-36.7
								c0.2-1.2-0.1-2.3-0.8-2.7s-1.8-0.2-2.8,0.6c-15,12.1-24.1,21-27.4,26.5c-2.6,4.4-4,9.3-3.9,13.5
								C681.8,1014,683.4,1017.4,686.2,1019L686.2,1019z"/>
						</g>
					</g>
				</g>
			</g>
		</g>
	</g>
	<g>
		<path class="st2" d="M702.1,914H321.3c-19.9,0-36.1-16.2-36.1-36.1V251.8h452.9V878C738.2,898,722,914,702.1,914z"/>
	</g>
	<g id="车头_6_">
		<path class="st0" d="M761.8,120.3v73.3c0,6.9-5.3,12.4-11.8,12.4H277.3c-6.5,0-11.8-5.6-11.8-12.4v-73.3c0-2.3,0.6-4.5,1.6-6.3
			c2.1-3.7,5.8-6.1,10.2-6.1H750C756.5,107.8,761.8,113.4,761.8,120.3z"/>
		<g>
			<rect x="253.3" y="57.7" class="st0" width="51.5" height="21.7"/>
			<path class="st0" d="M279,82.9h-77.2c0-17.9,17.3-32.5,38.6-32.5S279,64.9,279,82.9z"/>
		</g>
		<g>
			<rect x="718.4" y="57.7" class="st0" width="51.6" height="21.7"/>
			<path class="st0" d="M744.1,82.9h77.5c0-17.9-17.3-32.5-38.7-32.5S744.1,64.9,744.1,82.9z"/>
		</g>
		<g>
			<path class="st2" d="M738.5,245.3h-453V98c0-54.1,43.4-98,96.9-98h259c53.5,0,96.9,43.9,96.9,98v147.2L738.5,245.3L738.5,245.3z"
				/>
		</g>
		<path class="st4" d="M296.7,232.8L296.7,232.8v-148l0,0c10.7,0,19.4,8.7,19.4,19.4v109.3C316.1,224.1,307.4,232.8,296.7,232.8z"/>
		<path class="st4" d="M732.7,234.6L732.7,234.6v-148l0,0c-10.7,0-19.4,8.7-19.4,19.4v109.3C713.3,225.8,722,234.6,732.7,234.6z"/>
		<path class="st4" d="M693.8,64.8H329.6v-0.7c0-21.5,17.5-39,39-39h286.2c21.5,0,39,17.5,39,39V64.8z"/>
		<path d="M693.8,66.1H330v-0.5c0-15.1,12.2-27.3,27.3-27.3h309.2c15.1,0,27.3,12.2,27.3,27.3V66.1z"/>
		<path class="st5" d="M597.5,245.3H425.9c-53.2,0-96.3-43.1-96.3-96.3V66.6h364.1v82.4C693.8,202.3,650.7,245.3,597.5,245.3z"/>
	</g>
</g>
</svg>
