<?xml version="1.0" standalone="no"?><!DOCTYPE svg PUBLIC "-//W3C//DTD SVG 1.1//EN" "http://www.w3.org/Graphics/SVG/1.1/DTD/svg11.dtd"><svg t="1576736831434" class="icon" viewBox="0 0 1024 1024" version="1.1" xmlns="http://www.w3.org/2000/svg" p-id="3173" xmlns:xlink="http://www.w3.org/1999/xlink" width="128" height="128"><defs><style type="text/css"></style></defs><path d="M512 512m-384 0a384 384 0 1 0 768 0 384 384 0 1 0-768 0Z" fill="#266299" p-id="3174"></path><path d="M381.63 437.35v277.32h252.86V437.35H381.63z m92.47 232.43h-20.38V485.6h20.38v184.18z m88.35 0h-20.38V485.6h20.38v184.18z m0 0M666.95 361.9h-107.9v-52.57H457.08v52.57H336.63v63.25h350.75V361.9h-20.43z m-185.41 0v-32.18h53.08v32.14h-53.08v0.04z m0 0" fill="#FFFFFF" p-id="3175"></path></svg>